<?xml version="1.0" encoding="UTF-8"?>
<svg viewBox="0 0 430.40555 286.48602" xmlns="http://www.w3.org/2000/svg">
 <path transform="translate(-10.594 -12.122)" d="m192.51 298.02c-0.34546-0.55897 0.0734-1.0163 0.9309-1.0163 1.7565 0 2.0152 0.60006 0.62812 1.4573-0.512 0.31644-1.2136 0.11799-1.559-0.44098zm-76.735-1.5744c-0.34407-0.34406-6.6217-0.70241-13.95-0.79633-12.629-0.16186-13.596-0.32016-18.513-3.0336-6.6602-3.6749-10.523-7.4921-16.024-15.836-6.8754-10.427-5.1372-13.372 8.2127-13.914 17.4-0.70639 35.361 4.9992 41.351 13.136 2.184 2.967 2.6444 3.1447 6.5 2.5084 6.7098-1.1072 42.621-1.441 49.149-0.45683 7.8282 1.1801 30.771 3.7482 46.318 5.1845 11.115 1.0269 12.272 1.3152 11.844 2.9521-0.39748 1.5199 0.14939 1.8141 3.373 1.8141 2.116 0 4.144 0.47999 4.5066 1.0666s3.1819 0.98437 6.309 0.88239c3.1074-0.10134 6.3248 0.058 7.1498 0.35412s2.175 0.76351 3 1.0387c0.825 0.27516-1.7359 0.53581-5.691 0.57923-7.9837 0.0876-10.755 1.7163-4.0818 2.3985 2.35 0.24023-3.3772 0.28256-12.727 0.094-17.493-0.35267-28.636-1.3397-36.5-3.2332-2.475-0.59591-10.35-1.8208-17.5-2.7221s-16.15-2.1919-20-2.8682c-6.7511-1.1859-33.304-1.2631-36.321-0.10549-0.78813 0.30243-2.0274 0.0566-2.7538-0.54637-0.9595-0.79631-1.814-0.78797-3.1232 0.0305-1.5951 0.99719-1.5437 1.056 0.44764 0.5116 2.6736-0.73094 3.0035 0.9409 0.5 2.5336-1.3593 0.86477-0.52207 0.99278 3.75 0.57341 15.418-1.5135 21-1.7466 21-0.87704 0 0.51533-1.6875 1.4151-3.75 1.9994-3.1193 0.88378-2.2985 0.97427 4.8807 0.53801 9.221-0.56033 15.295 0.25303 12.908 1.7284-0.74644 0.46132-1.915 0.62473-2.5967 0.36312s-1.4949-0.0625-1.8069 0.44242-6.3083 1.0113-13.325 1.1252c-20.531 0.33337-15.524 1.0809 8.2733 1.235 15.895 0.10297 19.993 0.34673 14.917 0.88718-8.7569 0.93223-44.879 1.2583-45.725 0.41273v5e-5zm-3.5252-3.1042c-0.6875-0.27741-1.8125-0.27741-2.5 0s-0.125 0.50439 1.25 0.50439 1.9375-0.22698 1.25-0.50439zm7.75-0.35677c0-0.60496-1.1175-0.75097-2.75-0.35933-3.926 0.94185-4.0579 1.3784-0.41667 1.3784 1.7417 0 3.1667-0.45857 3.1667-1.019zm-17.373-2.3879c2.8201-1.3131 5.363-2.7712 5.6509-3.2402s-3.1445-0.91242-7.6275-0.98531c-7.9509-0.12929-9.47-0.52955-26.151-6.8906-2.9789-1.136 8.5474 9.2783 11.75 10.617 1.959 0.81863 3.9014 0.85725 6.75 0.1342 2.2584-0.57326 3.9995-0.62616 3.9995-0.12152 0 0.49152-0.87344 0.89367-1.941 0.89367s-2.2191 0.45-2.559 1c-1.1471 1.8561 4.9338 1.0113 10.127-1.407zm122.41-1.5524 3.4622-2.9594-4.7932-0.0406c-4.4844-0.038-28.914-2.4213-36.707-3.581-19.722-2.9349-56.622-4.1714-58.822-1.971-0.28125 0.28125 0.12614 0.52508 0.9053 0.54186 13.228 0.28475 23.267 1.0368 31.417 2.3533 5.5 0.8885 12.925 2.0552 16.5 2.5927 3.575 0.53747 12.125 1.8772 19 2.9773 23.85 3.8162 24.672 3.8187 29.038 0.0868zm-115.11 0.49635c2.5955-1.3422 4.9732-4.5915 3.2901-4.4964-1.0026 0.0567-7.8183 5.9594-6.8812 5.9594 0.41904 0 2.035-0.65836 3.591-1.463zm10.003-7.5582c1.349-0.78926 1.3582-0.92226 0.0658-0.9484-0.82678-0.0167-2.7673-1.3697-4.3122-3.0066-4.0159-4.2548-15.861-9.7152-25.185-11.61-8.4404-1.7152-22.33-1.9839-23.852-0.4615-0.49559 0.49559-0.61454 2.0427-0.26435 3.438 0.93803 3.7374 9.2828 8.2407 24.117 13.015 3.9165 1.2604 7.4772 1.4881 16.431 1.0504 6.287-0.30731 12.137-0.97185 13-1.4768zm6.069-0.88519c0-0.49851-0.9-0.67103-2-0.38337s-2 0.69553-2 0.90638 0.9 0.38337 2 0.38337 2-0.40787 2-0.90638zm62.5 12.906c-0.33992-0.55-0.14148-1 0.44098-1s1.059 0.45 1.059 1-0.19844 1-0.44098 1-0.7191-0.45-1.059-1zm122.5-6.441c0-0.85746 0.45-1.559 1-1.559s1 0.42344 1 0.94098-0.45 1.2191-1 1.559-1-0.0835-1-0.94098zm99-1.559c0-0.55 0.70156-1 1.559-1s1.2809 0.45 0.94098 1-1.0415 1-1.559 1-0.94098-0.45-0.94098-1zm-196.7-5.9927c-5.295-1.2162-10.296-3.9971-10.296-5.7255 0-0.89338 0.72481-2.4252 1.6107-3.4041 1.4809-1.6364 1.4809-2.1606 0-6.5069-0.88587-2.5999-1.6107-5.5773-1.6107-6.6164 0-1.5006-0.46286-1.7448-2.25-1.1871-1.2375 0.3862-2.5282 1.1346-2.8682 1.6632s-3.7987 0.81413-7.686 0.63455-7.3965 2e-3 -7.7984 0.40416-1.0529 0.73066-1.4466 0.73066c-0.65934 0-5.9507-10.001-5.9507-11.247 0-1.1129 12.941-2.753 21.724-2.753 8.9877 0 9.065-0.0213 9.7311-2.675 0.47828-1.9056 0.22183-2.9266-0.89159-3.5497-0.85964-0.48107-1.563-1.7523-1.563-2.825 0-1.767-0.73291-1.9503-7.8-1.9503-4.29 0-8.2468 0.44682-8.7929 0.99294s-7.0486 1.2823-14.45 1.636-13.645 0.80687-13.874 1.0071 4.2333 0.36398 9.9167 0.36398c16.437 0 10.633 1.3329-7.2654 1.6686-17.919 0.33612-24.735 0.98762-24.735 2.3643 0 0.50069 2.3625 0.71925 5.25 0.48568 11.106-0.89834 30.181-1.3333 25.25-0.57581-2.75 0.42247-12.65 1.0809-22 1.4632s-18.575 1.0871-20.5 1.5663c-18.503 4.6053-58.769 3.087-74.056-2.7924-9.5774-3.6834-16.926-18.095-15.115-29.643 0.84525-5.3901 0.79404-5.5931-1.5604-6.184-1.8919-0.47484-2.3075-1.0835-1.8651-2.7318 0.31305-1.1664 0.57533-3.2874 0.58284-4.7133 0.01015-1.9267 0.84832-2.9992 3.2637-4.1759 6.4156-3.1256 10.581-4.7316 12.274-4.7316 1.4219 0 1.5033-0.26272 0.4679-1.5103-2.3904-2.8803-14.915-10.583-23.681-14.565-4.8456-2.2007-9.7729-4.4835-10.95-5.073-2.4415-1.2231-4.4946-5.0435-3.5171-6.5445 1.3425-2.0614 5.094-3.272 8.3248-2.6866 11.45 2.0748 19.121 6.825 31.119 19.272l8.5585 8.8781 4.7449-0.88645c2.6097-0.48754 4.8624-1.0039 5.006-1.1476s-2.2365-4.7556-5.2892-10.249c-12.613-22.698-16.614-44.658-9.095-49.924 2.0691-1.4492 5.9673-1.244 8.2875 0.4363 0.55 0.39832 2.2255 1.0168 3.7234 1.3745 1.9715 0.47072 2.5921 0.30173 2.248-0.61211-0.26144-0.69431 0.43546-2.752 1.5487-4.5728 1.6387-2.6802 2.4482-3.1804 4.252-2.6276 1.2254 0.37553 2.7905 1.1328 3.478 1.6828 1.9424 1.554 1.4737 6.5315-0.83219 8.8374l-2.0822 2.0822 5.6902 5.1179c3.1296 2.8148 7.6144 7.48 9.9662 10.367s4.4407 5.1045 4.642 4.9275 5.766-0.61902 12.366-0.98239c18.057-0.99416 22.69-1.6626 26.217-3.7829 3.7939-2.2808 15.703-5.8358 19.28-5.7552 4.9083 0.11068 9.3939 2.3256 10.012 4.9436 0.40251 1.7056 1.2812 2.5092 2.7651 2.529 2.626 0.035 9.2263 6.1757 9.2263 8.5838 0 0.94628 0.50699 1.8895 1.1266 2.096s1.7139 3.2252 2.4316 6.7081c2.4015 11.653-2.4482 29.929-10.769 40.583-5.739 7.3479-5.5194 6.9502-3.1368 5.6808 2.4969-1.3302 8.8012-9.613 10.283-13.51 1.1593-3.0493 2.7563-3.5004 3.2599-0.92074 0.3666 1.8781-0.92026 3.6666-8.6497 12.021-3.3874 3.6613-5.5226 5.2068-6.75 4.8858-0.9874-0.25821-1.795 0.0509-1.7947 0.68691 4e-4 0.8052 3.1132 1.1318 10.25 1.0753 8.7359-0.0691 10.297-0.32753 10.573-1.75 0.19602-1.0118-0.32268-1.6689-1.3174-1.6689-1.0931 0-1.4679-0.58406-1.123-1.75 0.82011-2.7724 1.0497-13.151 0.30736-13.893-0.3701-0.37009-0.16978-1.2791 0.44515-2.0201 0.65752-0.79227 0.91918-3.4169 0.63524-6.3719-0.26555-2.7636-0.0757-5.2764 0.42183-5.5839 0.51501-0.31829 0.43211-1.1284-0.19248-1.881-0.79854-0.96218-0.78873-1.5125 0.0361-2.0223 0.72621-0.44882 1.0147-3.2641 0.80339-7.839-0.26039-5.6364-0.0327-7.1387 1.082-7.1387 0.77651 0 1.5993 0.5625 1.8285 1.25s-0.0708 1.25-0.66667 1.25c-0.69281 0-1.0833 3.0641-1.0833 8.5 0 9.0036 1.1224 10.817 3.3767 5.4555l1.2801-3.0445 1.2064 4.0266c1.028 3.4311 0.9624 4.399-0.44339 6.5445-2.1707 3.3129-3.3375 3.1792-4.0665-0.46587-0.99073-4.9536-2.424-2.2714-2.3044 4.3123 0.0617 3.3943-0.16671 8.7474-0.50755 11.896l-0.61971 5.7243 8.0084-0.0523c4.4046-0.0288 8.4722 0.23434 9.0392 0.58473 1.8528 1.1451 1.0836 2.519-1.4102 2.519-1.3425 0-2.7368 0.4787-3.0984 1.0638-0.60151 0.97327 4.4014 0.60493 8.2894-0.61031 2.0187-0.63098 1.518-4.4535-0.58333-4.4535-2.7968 0-3.3458-1.1445-1.518-3.1643 1.5504-1.7132 1.4884-1.9792-0.99782-4.2834-7.2982-6.7637 2.0502-16.32 9.5736-9.7861 2.6931 2.3388 3.0386 4.8772 1.1931 8.7663-1.2746 2.6859-1.4147 3.8703-0.55919 4.7258 1.7073 1.7073 1.3834 2.7416-0.8584 2.7416-1.4486 0-2 0.66667-2 2.4182 0 4.325 1.0157 5.5912 4.357 5.432l3.143-0.14983-2.9243-0.43342c-2.2004-0.32611-2.5717-0.65657-1.5-1.3348 0.99712-0.63106 1.0494-0.90604 0.17433-0.91676-0.6875-8e-3 -1.25-0.3799-1.25-0.82551s2.3625-0.8729 5.25-0.94953 7.535-0.27454 10.328-0.4398c4.2056-0.24886 5.6657 0.14721 8.5 2.3056 1.8822 1.4334 4.4602 2.9343 5.729 3.3354 3.4923 1.1041 2.3082 3.838-2.1155 4.8841-2.7179 0.64276-3.706 1.3626-3.4811 2.5359 0.2271 1.1853 1.8317 1.8072 5.8018 2.2488 8.212 0.91334 12.988 3.2225 12.988 6.2796 0 1.3706-0.42389 2.754-0.94199 3.0742-0.56348 0.34825-0.39815 1.8756 0.41145 3.801 1.6044 3.8157 3.4695 4.3534 18.031 5.1976 11.902 0.69006 16.955-0.19892 17.102-3.0086 0.28639-5.49 0.25628-5.4542 4.5842-5.4542 5.1624 0 14.876-2.1762 31.216-6.994 3.7962-1.1192 7.1712-1.7632 7.5-1.4309 0.79954 0.80796-5.0157 5.4136-6.8433 5.4199-1.0425 4e-3 -0.90414-0.43257 0.5-1.5767 1.7892-1.4578 1.797-1.5358 0.10007-0.99644-5.3807 1.7103-31.168 8.5781-32.209 8.5781-1.6668 0-2.646 4.2269-1.2702 5.4828 0.79993 0.73018 0.93211 0.45284 0.46838-0.98275-0.46003-1.4242 0.074-1.1362 1.8547 1 1.3754 1.65 2.7479 3.7645 3.05 4.6988 0.80263 2.4825 3.3084 2.8662 8.947 1.3701 3.3773-0.89612 4.9168-1.7998 4.7437-2.7844-0.23112-1.3145 3.514-3.7845 5.7383-3.7845 1.6719 0 6.296-2.0554 5.7816-2.5698-0.28262-0.28262-3.288 0.44621-6.6787 1.6196-5.833 2.0186-10.548 2.0046-8.5021-0.0252 1.3218-1.3112 9.2186-3.2198 14.108-3.4098 3.7418-0.14541 7.6408-1.6148 4.2848-1.6148-0.87886 0-0.67309-0.51789 0.58333-1.4682 2.734-2.0679 1.8794-1.9185-8.3975 1.4682-9.8159 3.2347-16.161 3.8861-16.161 1.659 0-0.82421 2.8903-2.1122 7.5-3.3423 4.125-1.1007 7.5-1.6672 7.5-1.2588s-2.3625 1.3267-5.25 2.0407-4.4964 1.4603-3.5754 1.6586c1.9629 0.42246 18.949-4.7353 23.72-7.2026 3.3951-1.7557 6.7588-1.4207 5.5398 0.5517-0.38084 0.61621-2.6968 2.007-5.1465 3.0906-6.1467 2.719-4.7566 3.3529 1.7384 0.79277 5.8041-2.2878 9.0914-2.0413 6.9639 0.52219-1.0039 1.2096-0.94245 1.4882 0.32836 1.4882 2.8997 0 2.768 1.9039-0.23926 3.459-1.6424 0.8493-6.6071 2.688-11.033 4.0861s-8.0466 2.7915-8.0466 3.0966c0 0.51264 4.8522 0.15839 17.5-1.2776 3.4202-0.38832 4.684-0.2423 4 0.46215-0.55 0.56642-7.4125 1.3504-15.25 1.7422-7.9633 0.39807-14.25 1.1367-14.25 1.6742s2.7214 0.84024 6.25 0.68249c7.4856-0.33465 14.246-0.0879 13.66 0.49851-0.23298 0.23298-6.7205 0.91696-14.417 1.52s-16.139 1.3715-18.762 1.7078c-3.9728 0.50931-4.6734 0.36228-4.1965-0.88062 0.38638-1.0069-0.50156-1.9749-2.731-2.9772-2.5329-1.1388-7.2373-1.4629-20.166-1.3893l-16.863 0.0959-1.7608 5.5c-0.96846 3.025-2.061 6.2095-2.4277 7.0766-0.99708 2.3572 6.0033 4.3954 12.112 3.5265 7.9639-1.1327 21.217-1.6401 17.802-0.68165-1.65 0.46305-5.2275 0.89516-7.95 0.96024-6.3448 0.15165-4.888 1.8817 1.95 2.3156l5 0.31732-7.5 1.1086c-5.6106 0.82933-6.4923 1.1409-3.5 1.2368 2.2 0.0705 8.4608-0.54418 13.913-1.3659 11.69-1.7619 10.838-1.7095 10.168-0.62545-0.65156 1.0542-6.4596 2.0327-16.545 2.7874-4.1966 0.31399-7.9847 1.121-8.549 1.8212-1.6757 2.0795-46.543 5.0571-53.191 3.5301v-1e-5zm16.704-2.0073c0-0.55-0.47656-1-1.059-1s-0.7809 0.45-0.44098 1 0.81648 1 1.059 1 0.44098-0.45 0.44098-1zm11-8.0391c5.0992-1.7084 7.4991-4.8883 8.9895-11.911 1.1638-5.4841 1.1192-6.8635-0.37468-11.603-0.93252-2.9583-2.039-5.5911-2.4589-5.8505s-4.1142 0.0956-8.2096 0.78912c-6.1859 1.0475-7.1077 1.4372-5.4463 2.3026 1.1 0.57292 2.5538 0.8429 3.2306 0.59995 0.90476-0.32478 0.86031 0.27194-0.16787 2.2538-0.81816 1.577-1.1897 4.2023-0.89532 6.3269 0.84491 6.0981 0.85002 6.1034 4.87 4.9934 4.355-1.2025 5.0211-0.77416 3.4273 2.2039-1.0309 1.9262-0.97264 2.151 0.41898 1.617 1.0173-0.3904 1.6163-0.0979 1.6163 0.78935 0 2.0186-2.0754 3.0236-3.0356 1.47-0.6453-1.0441-1.1159-1.0616-2.2925-0.0851-0.89391 0.74188-2.5516 0.95995-4.1836 0.55035-1.8217-0.45721-2.994-0.22672-3.5956 0.70694-0.74995 1.1639-1.0328 1.1681-1.7689 0.0266-0.6423-0.99601-2.0111-1.1671-5.1266-0.64072-3.3048 0.55833-4.0763 0.43658-3.4683-0.54727 0.59682-0.96567-0.06-1.1287-2.7734-0.68838-3.7683 0.61151-6.08-1.0026-8.6966-6.0725-1.1609-2.2493-1.0995-2.2905 2.4243-1.6295 3.487 0.65416 3.5928 0.5881 2.9783-1.8601-0.48999-1.9523-0.15025-2.7989 1.4714-3.6668 2.9066-1.5555 4.3786-0.34358 3.7006 3.0467-0.64218 3.2109 1.5318 6.175 3.8707 5.2774 1.5913-0.61062 0.6963-2.8893-4.1671-10.61-1.2992-2.0625-1.8924-3.75-1.3183-3.75s1.3268 0.7875 1.6726 1.75c1.3836 3.8511 6.682 6.8114 9.9481 5.558 1.2302-0.47207 1.2017-0.82591-0.1904-2.3642-0.90042-0.99495-2.2698-1.5662-3.0432-1.2694s-1.406 0.0896-1.406-0.46045 0.675-1.259 1.5-1.5756 1.4972-1.1522 1.4938-1.857c-5e-3 -0.94517-2.7295-1.3382-10.385-1.4977l-10.379-0.21634-2.2154 6.8899c-3.5864 11.154-0.74238 20.326 6.6885 21.57 2.0887 0.34989 4.2477 0.81992 4.7977 1.0445 1.9099 0.77995 19.02-0.44533 22.5-1.6113v-1e-5zm-31-7.9609c0-0.55 0.42344-1 0.94098-1s1.2191 0.45 1.559 1-0.0835 1-0.94098 1-1.559-0.45-1.559-1zm-2.5-2c-0.33992-0.55-0.14148-1 0.44098-1s1.059 0.45 1.059 1-0.19844 1-0.44098 1-0.7191-0.45-1.059-1zm57.231 10.307c-0.97297-0.25354-2.323-0.23687-3 0.0371s0.11903 0.48137 1.769 0.46099 2.2039-0.2445 1.231-0.49804v-5e-5zm-30.731-10.366c0-0.58246-0.45-0.7809-1-0.44098s-1 0.81648-1 1.059 0.45 0.44098 1 0.44098 1-0.47656 1-1.059zm-13.5-0.94098c-0.33992-0.55-0.81648-1-1.059-1s-0.44098 0.45-0.44098 1 0.47656 1 1.059 1 0.7809-0.45 0.44098-1zm11.5-3.1224c0-0.48266-1.2375-0.84203-2.75-0.79861s-2.1875 0.30592-1.5 0.58333 1.25 1.197 1.25 2.0435c0 1.2547 0.27717 1.3091 1.5 0.29422 0.825-0.68469 1.5-1.6398 1.5-2.1224zm-41-1.8759c8.7584-1.8181 9.5951-1.8446 10.718-0.33885 1.0826 1.4511 1.3335 1.3307 2.25-1.0799 1.8611-4.8951 1.8267-4.9082-11.387-4.3376-6.8304 0.29498-12.913 0.84142-13.516 1.2143-0.75563 0.467-0.55818 1.5901 0.63448 3.6092 0.95232 1.6121 1.747 2.9253 1.7659 2.918s4.3094-0.90057 9.5344-1.9852zm8.1875 0.31523c-0.72188-0.28887-1.5844-0.25335-1.9167 0.0789s0.25834 0.56864 1.3125 0.52522c1.165-0.048 1.4019-0.28494 0.60417-0.60416v4e-5zm93.2-4.8481c-0.91218-1.3922-1.8537-2.336-2.0923-2.0974-0.5932 0.5932 1.9947 4.6286 2.9684 4.6286 0.43038 0 0.0362-1.139-0.87601-2.5312zm-3.7869 0.26454c2.0207-2.0226-1.5618-2.6879-9.1514-1.6994-7.1762 0.93465-20.195 0.57595-24.699-0.68054-1.1084-0.30918-1.75 0.0643-1.75 1.0189 0 1.005 1.2491 1.6377 3.75 1.8993 6.4906 0.67889 31.049 0.26393 31.851-0.53818zm-56.027-3.5071c-1.7278-1.6502-1.7546-1.6234-0.60945 0.60946 0.6588 1.2846 1.4721 2.0614 1.8073 1.7262s-0.20383-1.3862-1.1978-2.3356zm-130.38-0.67024c15.463-0.81842 28.997-3.3522 33.283-6.2312 1.0849-0.72864 2.6659-1.3248 3.5133-1.3248 2.0506 0 10.702-5.8908 14.77-10.057 2.031-2.08 3.0541-3.9683 2.7202-5.0203-0.29436-0.92743 0.0548-1.9126 0.77602-2.1894 1.3112-0.50314 3.0778-6.4769 4.2849-14.489l0.64109-4.2552-3.8249 0.4897c-2.1037 0.26934-5.8561 1.1613-8.3388 1.9821-5.9197 1.9572-16.143 4.2182-23.014 5.0896-3.025 0.38366-6.625 1.1292-8 1.6568-2.8424 1.0906-20.23 2.1528-33.25 2.0311-4.8125-0.045-8.75 0.30024-8.75 0.76711s1.079 1.669 2.3977 2.6714c3.6425 2.7688 7.7235 5.7417 8.9477 6.5182 0.60321 0.38259 0.77159 1.0208 0.37419 1.4182-1.464 1.464-8.3934-3.7179-13.039-9.7508-1.1179-1.4516-1.6226-1.7154-1.3086-0.68405 0.28112 0.92344 0.83311 3.3984 1.2266 5.5 0.65909 3.5198 0.58131 3.7098-0.98687 2.4108-0.9363-0.77562-1.4467-2.0765-1.1342-2.8909 0.91491-2.3842-2.0708-5.8664-5.6594-6.6004-1.8248-0.37322-6.9177-0.90035-11.318-1.1714s-10.16-0.92805-12.799-1.46-5.0664-0.96713-5.3929-0.96713-0.33819 3.4875-0.02593 7.75c0.65777 8.979 3.8285 16.482 8.6956 20.578 3.7512 3.1564 13.644 6.4124 24.522 8.0714 7.8179 1.1922 10.837 1.2076 30.689 0.15689zm-14.189-6.556c0-0.55 0.45-1 1-1s1 0.45 1 1-0.45 1-1 1-1-0.45-1-1zm14-3c0-0.55 0.45-1 1-1s1 0.45 1 1-0.45 1-1 1-1-0.45-1-1zm-4.5-1c0.33992-0.55 1.2665-1 2.059-1s1.441 0.45 1.441 1-0.92656 1-2.059 1-1.7809-0.45-1.441-1zm-32.5-1c0-0.55 0.45-1 1-1s1 0.45 1 1-0.45 1-1 1-1-0.45-1-1zm11 0.10699c0-0.60885 0.72315-1.107 1.607-1.107 1.0176 0 1.3959-0.55016 1.0314-1.5-0.35062-0.91371-0.0016-1.5 0.89301-1.5 0.80774 0 1.4686 0.9 1.4686 2s-0.4132 2-0.91821 2-1.63 0.27314-2.5 0.60699-1.5818 0.10884-1.5818-0.5zm-21-0.54797c0-1.0555 1.9191-1.4989 2.4899-0.57533 0.34546 0.55897-0.07344 1.0163-0.9309 1.0163s-1.559-0.19844-1.559-0.44098zm16-0.55902c0-0.55 0.45-1 1-1s1 0.45 1 1-0.45 1-1 1-1-0.45-1-1zm47.393-0.58179c0.33385-0.86998 0.60699-1.77 0.60699-2s0.45-0.41821 1-0.41821 1 0.9 1 2c0 1.1703-0.66667 2-1.607 2-1.0545 0-1.3983-0.5438-1-1.5818zm22.313-0.38827c0.92775-1.0835 1.8875-1.7694 2.1327-1.5242 0.59606 0.59607-1.8522 3.4942-2.9518 3.4942-0.47727 0-0.1087-0.88653 0.81905-1.9701zm-49.756-1.4705c0.65756-0.79231 1.8351-1.1952 2.6167-0.89521 1.9571 0.75099 0.77051 2.3358-1.7488 2.3358-1.6829 0-1.843-0.26564-0.86787-1.4406zm-41.451-0.55944c-0.33992-0.55-0.14148-1 0.44098-1s1.059 0.45 1.059 1-0.19844 1-0.44098 1-0.7191-0.45-1.059-1zm56.5 0.11803c0-0.55 0.45-1.2781 1-1.618s1-0.16803 1 0.38197-0.45 1.2781-1 1.618-1 0.16803-1-0.38197zm-9-2.118c0-0.55 0.42344-1 0.94098-1s1.2191 0.45 1.559 1-0.08352 1-0.94098 1-1.559-0.45-1.559-1zm31 0c0-0.55 0.45-1 1-1s1 0.45 1 1-0.45 1-1 1-1-0.45-1-1zm6-1c0-0.55 0.45-1 1-1s1 0.45 1 1-0.45 1-1 1-1-0.45-1-1zm-66-0.94098c0-0.58246 0.45-1.059 1-1.059s1 0.19844 1 0.44098-0.45 0.7191-1 1.059-1 0.14148-1-0.44098zm26-1c0-0.51754 0.45-1.2191 1-1.559s1 0.0835 1 0.94098-0.45 1.559-1 1.559-1-0.42344-1-0.94098zm-51-1.059c0-0.55 0.19844-1 0.44098-1s0.7191 0.45 1.059 1 0.14148 1-0.44098 1-1.059-0.45-1.059-1zm72 0c0-0.55 0.19844-1 0.44098-1s0.7191 0.45 1.059 1 0.14148 1-0.44098 1-1.059-0.45-1.059-1zm-60-1c0-0.55 0.675-1 1.5-1s1.5 0.45 1.5 1-0.675 1-1.5 1-1.5-0.45-1.5-1zm7.469-0.0502c-0.95022-1.5375 0.35135-2.5295 1.6348-1.246 0.71818 0.71818 0.73544 1.2775 0.05243 1.6996-0.55992 0.34605-1.3192 0.1419-1.6873-0.45366zm40.047-2.9244c-0.80811-1.3076 1.4935-2.4162 2.6386-1.2711 0.64011 0.64011 0.44756 1.1844-0.55511 1.5692-0.84435 0.32401-1.7819 0.18986-2.0835-0.29812zm22.984-0.02544c0.33992-0.55 1.0415-1 1.559-1s0.94098 0.45 0.94098 1-0.70156 1-1.559 1-1.2809-0.45-0.94098-1zm-34.5-1c0-0.55 0.675-1 1.5-1s1.5 0.45 1.5 1-0.675 1-1.5 1-1.5-0.45-1.5-1zm19.459-1.0665c-0.36253-0.58659-0.41903-1.3066-0.12555-1.6001 0.71632-0.71631 2.6667 0.54583 2.6667 1.7257 0 1.278-1.7264 1.1927-2.5411-0.12555zm30.037 0.0595c-0.34231-0.55389 0.10054-1.2845 0.98412-1.6235 1.9146-0.73472 2.9817 0.0749 2.0614 1.5641-0.83038 1.3436-2.2349 1.371-3.0455 0.0595v-3e-5zm-17.496-0.99297c0-0.55 0.675-1 1.5-1s1.5 0.45 1.5 1-0.675 1-1.5 1-1.5-0.45-1.5-1zm7-1c0-0.55 0.42344-1 0.94098-1s1.2191 0.45 1.559 1-0.0835 1-0.94098 1-1.559-0.45-1.559-1zm23.5 0c-0.33992-0.55 0.0835-1 0.94098-1s1.559 0.45 1.559 1-0.42344 1-0.94098 1-1.2191-0.45-1.559-1zm-5.5-1c0-0.55 0.45-1 1-1s1 0.45 1 1-0.45 1-1 1-1-0.45-1-1zm183 27.441c0-0.24254-0.45-0.44098-1-0.44098s-1 0.47656-1 1.059 0.45 0.7809 1 0.44098 1-0.81648 1-1.059zm4.5-1.441c0.78218-1.2656-0.54163-1.2656-2.5 0-1.2927 0.8354-1.2663 0.97149 0.19098 0.98469 0.93004 8e-3 1.9691-0.43469 2.309-0.98469zm-164.26-4.6378 7.5451-0.6378 0.63258-4.1122c0.34792-2.2617 0.8956-5.5747 1.2171-7.3622 0.57092-3.1746 0.5007-3.25-3.0268-3.25-2.5434 0-3.6113 0.44358-3.6113 1.5 0 1.421-4.562 2.0273-12.724 1.6912-1.5421-0.0635-3.2032 1.2724-5.4195 4.3586-1.7577 2.4476-3.5171 4.4502-3.9097 4.4502s-0.9492 0.9-1.2369 2c-0.48489 1.8542-0.0307 2 6.2325 2 3.7155 0 10.151-0.28701 14.301-0.63779zm-14.743-1.4082c2.75-0.42833 6.8-0.75808 9-0.73277 3.8787 0.0446 3.8483 0.0696-1 0.82479-2.75 0.42833-6.8 0.75808-9 0.73277-3.8787-0.0446-3.8483-0.0696 1-0.82479zm14.5-6.895c0-0.58246 0.45-1.059 1-1.059s1 0.19844 1 0.44098-0.45 0.7191-1 1.059-1 0.14148-1-0.44098zm42.08 5.3449c1.1565-1.3935 1.0233-1.5521-1.0492-1.25-1.3056 0.19032-2.5591 0.90854-2.7855 1.596-0.59252 1.7992 2.2686 1.541 3.8347-0.34604zm26.42 0.59604c1.676-0.72021 1.4735-0.87082-1.25-0.92971-1.7875-0.03866-3.25 0.37971-3.25 0.92971 0 1.1872 1.7373 1.1872 4.5 0zm-50.054-5.3089c0.68781-1.9675 0.64512-3.0171-0.14252-3.5038-0.77749-0.48052-0.85689-2.0824-0.2573-5.1911 1.1372-5.8962 1.1261-6.8046-0.061-4.9962-0.80591 1.2277-1.141 1.2578-1.8455 0.16615-0.68932-1.0681-0.98677-1.0056-1.4929 0.31339-0.34766 0.90597-1.0454 1.3918-1.5506 1.0796s-1.2023 1.3468-1.5493 3.6866-0.88144 5.9716-1.1877 8.0705l-0.55686 3.8163 3.8309-0.31628c3.1678-0.26153 4.0008-0.80244 4.8128-3.1252h-2e-5zm17.951 2.4771c0.46157-0.74684 12.044-3.2267 17.104-3.6619 3.0267-0.26036 2.4178-2.9582-0.75-3.3227-1.574-0.18111-2.75-0.92947-2.75-1.75 0-1.8337-3.3974-1.8646-4.9078-0.0447-0.63398 0.76389-3.1384 1.8889-5.5653 2.5-7.5936 1.9121-13.527 1.256-13.527-1.4959 0-0.76615-0.9-1.393-2-1.393-1.2 0-2-0.66667-2-1.6667 0-3.5531-1.2284-0.20636-1.6373 4.4608l-0.43116 4.9212 6.2139-0.0686c4.0287-0.0444 6.3559 0.35728 6.6176 1.1423 0.45963 1.3789 2.8603 1.6294 3.633 0.37909v3e-5zm35.604-0.16818c-1.9388-1.2529-3-1.2529-3 0 0 0.55 1.0125 0.99311 2.25 0.98469 1.8194-0.0124 1.963-0.20082 0.75-0.98469zm-17.198-1.4686c0.29225-0.29225-0.66864-0.53136-2.1353-0.53136s-2.6667 0.42416-2.6667 0.94258c0 0.93421 3.7803 0.61048 4.802-0.41122zm10.198 0.30197c0-0.45833-0.675-0.83333-1.5-0.83333s-1.5 0.375-1.5 0.83333 0.675 0.83334 1.5 0.83334 1.5-0.375 1.5-0.83334zm-70.762-7.5406c-1.2439-0.23919-3.0439-0.23011-4 0.0202s0.0617 0.446 2.2617 0.4349 2.9822-0.21589 1.7383-0.45508v-2e-5zm6.4926 0.0143c-0.97297-0.25354-2.323-0.23687-3 0.0371s0.11903 0.48137 1.769 0.46099 2.2039-0.2445 1.231-0.49804v-5e-5zm-2.2898-2.2119c0.31906-0.51626-1.2661-0.67191-3.691-0.36242-5.6309 0.71868-6.0534 1.2673-0.97591 1.2673 2.2592 0 4.3593-0.40719 4.6669-0.90487zm29.559-1.0952c1.2927-0.8354 1.2663-0.97149-0.19098-0.98469-0.93004-8e-3 -1.9691 0.43469-2.309 0.98469-0.78218 1.2656 0.54163 1.2656 2.5 0zm24 0c0-0.55-0.675-1-1.5-1s-1.5 0.45-1.5 1 0.675 1 1.5 1 1.5-0.45 1.5-1zm-118.66-8.0508c3.2137-0.44107 6.138-1.0969 6.4984-1.4573 1.0135-1.0135-3.0407-3.563-4.789-3.0117-2.4279 0.76564-28.278 0.70677-30.903-0.0704-1.9373-0.57342-2.2876-0.36721-1.9911 1.1721 0.63725 3.309 4.6922 4.4464 15.342 4.3035 5.5-0.0738 12.629-0.49508 15.843-0.93616v2e-5zm-35.343-0.7749c0-0.45412-1.0125-1.75-2.25-2.8797-1.6361-1.4936-4.1599-2.2125-9.25-2.6349-10.686-0.88683-16.563-1.7332-19.324-2.7831-2.7038-1.028-4.4224 0.31659-3.4946 2.7341 0.61797 1.6104 12.103 4.2197 23.328 5.2997 4.6702 0.44936 9.0537 0.87833 9.7412 0.95328s1.25-0.2353 1.25-0.68943zm3.9682 0.0757c-0.0641-1.5116-2.8728-4.4485-3.9204-4.0992-0.6928 0.23093-0.51623 1.1631 0.49333 2.6044 1.5202 2.1704 3.4922 3.0305 3.4271 1.4948zm41.62-3.9949c-1.0924-1.0924-1.8415 0.64486-1.0572 2.4518 0.74368 1.7134 0.79759 1.7118 1.2119-0.0351 0.2385-1.0056 0.16886-2.093-0.15476-2.4167v-4e-5zm4.3866-0.68003c-1.3451-1.3451-2.3454 0.0173-1.5448 2.1038 0.57449 1.4971 0.81466 1.5429 1.5819 0.30148 0.54563-0.88283 0.5309-1.8373-0.0371-2.4053h-2e-5zm13.025 1.4081c3.575-0.63279 8.75-1.7634 11.5-2.5125 11.498-3.1318 13.092-3.6066 15-4.4663 1.1-0.49572 2.8676-1.037 3.9281-1.2028 1.77-0.27682 4.1844-5.5224 3.0596-6.6472-0.24538-0.24539-3.043 0.70204-6.2169 2.1054-5.8163 2.5717-24.032 7.9176-32.16 9.4384-3.2835 0.61435-4.6081 1.4134-5.2587 3.1721-0.77645 2.0989-0.62758 2.2926 1.389 1.8072 1.2423-0.29906 5.1837-1.0615 8.7587-1.6943zm-57.5-2.9832c0.33992-0.55-0.08352-1-0.94098-1s-1.559 0.45-1.559 1 0.42344 1 0.94098 1 1.2191-0.45 1.559-1zm-10.099-6.0224c-4.0976-5.2156-8.4938-8.2184-9.9297-6.7825-0.84308 0.84308 11.051 12.61 12.845 12.707 1.3999 0.0757 0.73152-1.2826-2.9151-5.9242zm15.599 4.4634c0-0.24254-0.70156-0.44098-1.559-0.44098s-1.2764 0.45734-0.9309 1.0163c0.57081 0.92358 2.4899 0.48015 2.4899-0.57533zm37.5-0.44098c0.33992-0.55-0.30852-1-1.441-1s-2.059 0.45-2.059 1 0.64844 1 1.441 1 1.7191-0.45 2.059-1zm-43.5-1c0-0.55-0.675-1-1.5-1s-1.5 0.45-1.5 1 0.675 1 1.5 1 1.5-0.45 1.5-1zm46.349-1.532c-0.84693-2.207-2.2398-1.7653-1.642 0.52078 0.28604 1.0938 0.89926 1.7544 1.3627 1.468s0.58914-1.1814 0.27932-1.9888zm-65.849 0.53203c-0.33992-0.55-1.2665-1-2.059-1s-1.441 0.45-1.441 1 0.92656 1 2.059 1 1.7809-0.45 1.441-1zm23 0c-0.33992-0.55-0.81648-1-1.059-1s-0.44098 0.45-0.44098 1 0.47656 1 1.059 1 0.7809-0.45 0.44098-1zm58.5-1.1295c4.125-0.68141 6.7395-1.4088 5.81-1.6165s-4.2746 0.10022-7.4337 0.6842-7.2626 1.0618-9.119 1.0618c-2.12 0-3.132 0.39368-2.7211 1.0586 0.35982 0.5822 1.8489 0.83183 3.309 0.55473s6.0298-1.0613 10.155-1.7427zm-68.5-0.87054c-0.36414-1.1473-0.1797-2 0.43261-2 0.58706 0 1.0674 0.675 1.0674 1.5s0.7301 1.5 1.6224 1.5c1.2439 0 1.3626-0.31311 0.50868-1.342-0.61257-0.7381-0.7974-1.6584-0.41073-2.045s1.4434 0.27845 2.3482 1.478c0.90954 1.2058 1.9173 1.7408 2.2537 1.1965 0.76553-1.2386-3.3599-5.789-4.2027-4.6356-0.89678 1.2274-5.1196 1.5048-5.1196 0.33631 0-0.54352-0.41018-0.98821-0.91152-0.98821-1.216 0-0.8176 1.99 0.95089 4.75 1.7829 2.7825 2.2921 2.8696 1.4606 0.25zm50.5-1.559c0-0.24254-0.70156-0.44098-1.559-0.44098s-1.2764 0.45734-0.9309 1.0163c0.57081 0.92358 2.4899 0.48015 2.4899-0.57533zm21.104-0.46865c14.989-2.2689 17.056-2.7787 11.728-2.8934-2.0175-0.0434-4.4538-0.38042-5.414-0.74889-1.1903-0.45675-1.5157-0.29765-1.0228 0.5 0.45614 0.73804 0.0145 1.1699-1.1964 1.1699-1.0557 0-4.0776 0.2958-6.7153 0.65734-3.3294 0.45635-4.5914 0.32661-4.1273-0.42432 0.36768-0.59491-0.1245-1.2403-1.0937-1.4342s4.6738-1.1795 12.54-2.1902 14.579-1.5611 14.917-1.2231-0.47303 0.6461-1.8022 0.68476-3.3167 0.44584-4.4167 0.90487c-1.212 0.50577 0.36389 0.62509 4 0.30285 3.3-0.29246 6.45-0.97523 7-1.5173 0.65856-0.64903 0.14641-0.75407-1.5-0.30763-1.8501 0.50166-2.1176 0.41503-1.029-0.33323 2.7651-1.9006 0.022-2.4562-12.53-2.538-6.9058-0.045-11.518-0.37448-10.249-0.73216 1.518-0.42781 0.51127-0.68443-2.9424-0.75-5.0297-0.0955-7.1648 1.2533-3.5 2.211 0.9625 0.25153 0.3243 0.50953-1.4182 0.57333-4.1784 0.15299-6.3318 1.0394-6.3318 2.6064 0 0.70201-1.0125 1.5801-2.25 1.9513-2.1793 0.65371-2.1872 0.70025-0.25 1.4818 2 0.80694 2 0.80694 0 1.3988-1.1 0.32553 0.7 0.39774 4 0.16047 6.5661-0.47211 6.3534 0.0717-0.55822 1.4271-8.7819 1.7221 0.76799 1.0899 14.162-0.93751zm-3.8542-6.6617c0.9625-0.25152 2.5375-0.25152 3.5 0s0.175 0.45733-1.75 0.45733-2.7125-0.2058-1.75-0.45733zm8.481-0.96661c0.67703-0.27392 2.027-0.29059 3-0.0371s0.41903 0.47766-1.231 0.49804-2.4461-0.18706-1.769-0.46099v5e-5zm6.019-1.0063c0.6875-0.27741 1.8125-0.27741 2.5 0s0.125 0.50439-1.25 0.50439-1.9375-0.22698-1.25-0.50439zm-38.054 5.5112c1.2621-1.4522 1.0588-2.5364-1.6875-9-3.9915-9.3944-20.266-33.765-27.122-40.614-6.2861-6.2799-18.113-13.03-24.319-13.881-4.2403-0.5812-4.4995-0.47422-5.1523 2.1269-2.8264 11.261 6.2142 39.463 16.054 50.081 1.3917 1.5017 2.5304 3.0875 2.5304 3.524 0 0.72744 9.1731 3.7558 23 7.5931 3.025 0.83952 6.625 1.905 8 2.3677 4.199 1.4131 6.4816 1.5754 6.8805 0.48938 0.20927-0.56975 1.0262-1.7789 1.8154-2.6869zm-58.818 2.2475c0.75796-0.48009 1.0689-1.3732 0.69098-1.9847-0.84577-1.3685-3.5598-1.4155-5.5691-0.09649-1.3333 0.87528-1.3333 1.0941 0 1.9694 1.8495 1.2141 3.0928 1.2426 4.8781 0.1118zm63.372-1.6102c-0.3684-1.4534-2.5123-1.1994-3.0318 0.3592-0.29207 0.8762 0.20206 1.2202 1.4167 0.98631 1.0258-0.19756 1.7527-0.80304 1.6152-1.3455zm86.75 0.5137c0-0.55-0.42344-1-0.94098-1s-1.2191 0.45-1.559 1 0.0835 1 0.94098 1 1.559-0.45 1.559-1zm-66.812-0.68311c-0.72188-0.28887-1.5844-0.25335-1.9167 0.0789s0.25834 0.56864 1.3125 0.52522c1.165-0.048 1.4019-0.28494 0.60417-0.60416v4e-5zm6-1c-0.72188-0.28887-1.5844-0.25335-1.9167 0.0789s0.25834 0.56864 1.3125 0.52522c1.165-0.048 1.4019-0.28494 0.60417-0.60416v4e-5zm-77.938-0.97917c-0.6875-0.27741-1.8125-0.27741-2.5 0s-0.125 0.50439 1.25 0.50439 1.9375-0.22698 1.25-0.50439zm64.029-6.5365c24.17-18.868 32.721-27.977 32.721-34.85 0-2.349-0.59718-3.2314-2.75-4.0636-6.6162-2.5576-20.252 1.8784-41.75 13.582-6.6 3.5931-12.586 6.3125-13.302 6.043-1.4293-0.5379-1.1936-0.0478 2.6394 5.4871 2.2132 3.196 2.3697 3.2706 1.8016 0.85962-0.57012-2.4195-0.0244-3.0016 6.5239-6.9581 17.196-10.39 25.324-14.435 31.98-15.916 12.064-2.6843 14.307 1.486 5.6973 10.59-2.8377 3.0005-11.838 11.143-20 18.094s-14.84 13.019-14.84 13.485c0 1.9068 2.5092 0.49362 11.279-6.3524zm-72.279 4.2176c0-3.8609-24.359-24.019-29.025-24.019-1.0215 0-2.1353-0.45-2.4752-1-1.0482-1.696-10.473-1.233-11.157 0.54804-0.63573 1.6567 2.1727 4.3664 4.5811 4.4202 3.7685 0.0841 22.664 11.248 30.86 18.233 3.2237 2.7472 7.2152 3.7529 7.2152 1.818zm59.662-0.45647c-0.36004-0.93825 0.20718-1.5462 1.6328-1.75 1.2015-0.17177 2.3419-1.138 2.5344-2.1471 0.28256-1.4818-0.19655-1.7774-2.4904-1.5368-1.5621 0.16386-3.4025-0.0495-4.0896-0.47424-1.5592-0.96362-1.5686-0.17893-0.0485 4.0249 0.66049 1.8266 1.6086 3.321 2.107 3.321s0.65783-0.64696 0.3544-1.4377h-1e-5zm72.338-1.5623c0-0.55-0.45-1-1-1s-1 0.45-1 1 0.45 1 1 1 1-0.45 1-1zm-33.083-36.625c0.88704-0.79792-8.5255-0.18454-10.417 0.67881-1.3198 0.60251 0.0407 0.70608 4 0.30452 3.3-0.33469 6.1875-0.77719 6.4167-0.98333zm-78.298-24.927c-0.79976-2.0841-2.6768-1.7922-1.94 0.30172 0.50269 1.4286 0.36835 1.5204-0.73138 0.5-1.8775-1.7421-2.631-1.567-3.2375 0.75236-0.80391 3.0742 2.3222 4.3406 4.6217 1.8723 1.0136-1.088 1.5928-2.6299 1.2872-3.4264zm-20.066 153.64c-0.32197-0.52097-0.15916-1.2106 0.3618-1.5326s1.2106-0.15917 1.5326 0.3618 0.15916 1.2106-0.3618 1.5326-1.2106 0.15917-1.5326-0.3618zm279.45-0.08541c0-0.55 0.70156-1 1.559-1s1.2809 0.45 0.94098 1-1.0415 1-1.559 1-0.94098-0.45-0.94098-1zm30.021-3.3579c-4.9347-0.86989-6.7299-1.6499-7.5329-3.2731l-1.0543-2.1311-4.4671 2.3359c-5.1378 2.6866-7.3892 3.0863-4.4671 0.7931 3.2781-2.5726 27.6-14.367 29.627-14.367 1.0302 0 1.873-0.42682 1.873-0.94848s1.1468-2.1859 2.5485-3.6984c1.9263-2.0786 2.4756-3.617 2.25-6.3015l-0.29854-3.5516-10 0.27693c-5.5 0.15231-12.656 0.5419-15.901 0.86576-5.0569 0.50457-5.8166 0.36781-5.3087-0.95564 0.90377-2.3552-14.674-15.062-20.58-16.787-7.6839-2.2442-26.3-1.9045-34.439 0.62854-2.1655 0.67394-2.187 0.60986-0.75728-2.256 0.80931-1.6223 1.7608-4.3962 2.1144-6.1642 0.59692-2.9846 0.47225-3.1793-1.7427-2.7222-1.3121 0.27075-7.4481 1.0297-13.636 1.6866s-11.25 1.6367-11.25 2.1774 1.0125 0.70516 2.25 0.36542c3.1065-0.85284 20.367-2.0238 19.75-1.3398-0.275 0.30492-3.65 0.81825-7.5 1.1407-10.315 0.86402-14.41 1.6284-15.151 2.8284-0.45504 0.73627 0.94053 0.88104 4.4669 0.4634 3.1591-0.37415 5.378-0.20406 5.7778 0.44291 0.35703 0.57768 1.9446 0.79124 3.5279 0.47458s2.8787-0.20169 2.8787 0.25548-3.6879 1.1388-8.1954 1.5147-8.7387 1.1344-9.4028 1.6855c-0.80897 0.67139-1.322 0.66376-1.5546-0.0231-0.23601-0.69677-3.3261-0.67243-9.6462 0.076-5.1144 0.60564-9.5844 0.81569-9.9333 0.46677-1.4335-1.4335 1.7383-2.4896 10.695-3.5614 5.2046-0.62278 9.7046-1.3949 10-1.7158s-4.4096-0.26268-10.455 0.12946c-6.5434 0.4244-11.293 1.1852-11.735 1.8798-0.84497 1.3282-0.90828 1.0758-1.023-4.0788-0.057-2.56 0.3651-3.778 1.3333-3.8477 3.4929-0.25144 3.9207-0.53649 3.987-2.6566 0.0671-2.1469 0.10966-2.1584 0.92971-0.25 0.71611 1.6665 0.87115 1.4482 0.92971-1.309 0.0418-1.9661-0.33554-3.0582-0.92971-2.691-0.57437 0.35498-1-0.55628-1-2.141 0-4.44 2.1426-1.2735 2.7431 4.054 0.4755 4.2186 0.73904 4.587 3.2819 4.587 2.5121 0 2.8081-0.38865 3.2373-4.25 0.25981-2.3375 0.32045-8.075 0.13475-12.75-0.22226-5.5955-0.0301-7.8166 0.56237-6.5 0.495 1.1 0.93852 6.725 0.9856 12.5 0.0515 6.3132 0.42997 9.9564 0.94923 9.1368 0.72914-1.1509 0.93903-1.1509 1.3478 0 0.26628 0.74973 0.88326 0.98668 1.3711 0.52655 0.99188-0.93562 0.98479-16.939-0.0182-41.093-0.36701-8.8385-0.3092-15.544 0.12847-14.9 0.79315 1.1661 1.7766 26.651 1.7766 46.037v10.207l2.5-0.54052c1.375-0.29729 3.0447-0.70698 3.7104-0.91042 0.79258-0.24221 1.3257-3.4064 1.5444-9.1665l0.33398-8.7966 0.20563 9.0768 0.20564 9.0768 3-0.4403c2.8508-0.41841 4.0289-2.4594 2.1056-3.648-1.1244-0.69493-1.9349-8.5653-0.88207-8.5653 0.42704 0 0.77643 1.35 0.77643 3s0.45 3 1 3 1 1.35 1 3c0 2 0.5 3 1.5 3 1.0524 0 1.5-1.0621 1.5-3.559 0-2.118 0.40488-3.3088 1-2.941 0.55 0.33992 1 1.9926 1 3.6726v3.0545l4.75-0.71092c2.6125-0.391 5.0875-0.91865 5.5-1.1726 0.97172-0.59812 0.88919-8.6752-0.1431-14.005-1.0206-5.2696-0.16942-5.7358 13.393-7.3354 10.549-1.2442 18.54-2.2992 32.5-4.2905l8.5-1.2125 0.67671-4.5c1.4567-9.6866-5.3042-40.078-10.34-46.48-1.5533-1.9746-2.368-2.253-4.6117-1.5757-1.4988 0.45246-4.7502 1.3852-7.2252 2.0728-9.2069 2.5577-17.078 5.3-17.59 6.1286-0.29051 0.47005-1.8251 0.85463-3.4102 0.85463s-3.1601 0.45-3.5 1-1.7994 1-3.2434 1-5.2424 0.675-8.441 1.5-8.6281 2.2007-12.066 3.0572-8.275 2.1707-10.75 2.9206-7.0875 2.0972-10.25 2.9939c-5.1066 1.448-5.7652 1.9324-5.8862 4.3294-0.11893 2.357-0.19108 2.4139-0.56955 0.4489-0.23836-1.2375-0.9126-2.25-1.4983-2.25-0.72973 0-0.89354 4.6428-0.52041 14.75 0.47923 12.981 0.43531 13.611-0.36624 5.25-1.7824-18.592-2.0484-20.261-3.0669-19.242-0.54188 0.54188-0.98525 3.6232-0.98525 6.8474s-0.47295 6.432-1.051 7.1286c-0.76289 0.91922-0.66752 1.2664 0.34785 1.2664 1.0442 0 1.2937 1.0777 0.98394 4.25-0.31333 3.2093-0.59226 3.7603-1.1391 2.25-0.77889-2.1511-1.5232 4.3102-2.5343 22-0.71846 12.57-2.4723 24.5-3.6017 24.5-1.0408 0-1.0426 0.12 0.19502-13 2.5233-26.749 3.8936-43.834 3.8098-47.5l-0.0913-4-0.85132 4.5c-0.46823 2.475-1.5924 12.6-2.4982 22.5-2.2583 24.683-2.5002 26.5-3.5275 26.5-1.1812 0-1.1503-4.2097 0.0542-7.3778 1.0072-2.6491 1.3906-5.8196 3.038-25.122 0.5633-6.6 1.4477-14.925 1.9654-18.5s1.2194-10.993 1.5595-16.484 0.81302-10.179 1.0509-10.417 0.43947 0.20493 0.44789 0.98409c0.0126 1.1665 0.18652 1.1518 0.98469-0.0833 0.53316-0.825 0.94464-3.075 0.9144-5-0.0465-2.9625-0.20049-3.1928-1.0025-1.5-0.63285 1.3358-0.77729-1.3212-0.43489-8 0.28197-5.5 0.515-13.262 0.51785-17.25 3e-3 -4.3101 0.42337-7.25 1.0365-7.25 0.56722 0 0.92632 1.5591 0.79799 3.4647s0.0826 3.7806 0.46867 4.1667 0.70592-1.5105 0.7107-4.2147c5e-3 -2.7042 0.30081-7.3496 0.65784-10.323 0.47724-3.9749 0.34254-5.2171-0.5087-4.691-0.6368 0.39357-1.1578 1.889-1.1578 3.3232s-0.24844 2.3592-0.55208 2.0556c-0.90424-0.90423 0.74764-15.778 1.6878-15.197 0.47537 0.29377 0.86431-0.07039 0.86431-0.80926 0-4.5478-16.522-8.2699-36.5-8.223-13.782 0.03234-15.566 0.25127-21.963 2.6951-7.6537 2.9236-9.4427 2.7296-5.4081-0.58638 1.9252-1.5823 2.8153-3.4983 3.3266-7.1604 2.6384-18.897 10.531-37.79 18.613-44.557 11.256-9.4242 21.554-10.311 32.168-2.7702 2.9385 2.0876 8.5472 11.117 10.453 16.827 0.64232 1.925 1.6628 8.675 2.2676 15s1.2768 13.3 1.4932 15.5-0.0301 7.15-0.54762 11-1.1211 8.35-1.3413 10-0.69487 7.275-1.055 12.5-0.79924 11.075-0.97581 13c-1.5869 17.301-1.6797 20.789-0.57134 21.474 0.64589 0.39918 1.7156-0.0145 2.3772-0.91921 1.724-2.3578 25.062-5.6344 40.164-5.6391 6.6-2e-3 16.725 0.68595 22.5 1.5288s14.325 2.0484 19 2.679c4.675 0.63059 8.964 1.509 9.5312 1.9521 2.1978 1.7168 5.8901 14.844 8.5576 30.424 1.6537 9.6591 2.5723 8.374 2.6567-3.7167 0.0433-6.2058 0.26423-18.001 0.49085-26.212l0.41204-14.928 3.8744-3.3492c7.6546-6.6168 21.987-8.0104 32.477-3.1577 10.686 4.9431 12.033 6.9136 13.575 19.864 0.22932 1.925 0.6563 5.4125 0.94885 7.75s0.12737 4.25-0.36706 4.25-1.213-3.6-1.5968-8-0.8662-8-1.072-8-1.8623 0.86517-3.6813 1.9226c-7.4821 4.3496-26.58 5.3327-33.784 1.739-1.8318-0.91385-3.7886-1.6616-4.3483-1.6616s-1.9042-0.7875-2.9879-1.75c-1.9353-1.7189-1.961-1.6653-1.4498 3.0158 0.28627 2.6212 0.15346 4.9926-0.29514 5.2699-0.80844 0.49964-0.30859 25.581 0.56725 28.464 0.25063 0.825 0.68931 4.2 0.97484 7.5 1.1813 13.654 0.62566 12.935 13.281 17.184 4.2541 1.4283 11.1 4.1301 15.214 6.004 8.788 4.0036 8.7947 3.9999 12.11-6.6734 3.3513-10.79 3.5368-28.249 0.38546-36.264-0.37843-0.9625-0.26719-1.75 0.24719-1.75 1.6265 0 3.2787 9.8077 3.2787 19.463 0 8.7543-0.97178 13.527-5.6582 27.787-0.92942 2.8282 1.2202 2.0033 2.6062-1 3.4022-7.3724 4.2876-12.258 4.5385-25.04 0.14345-7.3097 0.54266-13.572 0.88715-13.917 1.0167-1.0167 0.71474-2.4657-0.37366-1.793-0.55 0.33992-1 0.14148-1-0.44098s0.45-1.059 1-1.059 1-0.675 1-1.5 0.45-1.5 1-1.5c1.5154 0 1.2162 16.574-0.5063 28.042-0.82847 5.5158-2.5882 12.691-3.9104 15.945l-2.4041 5.9166 3.4104 1.1256c1.8757 0.61905 3.4104 1.5406 3.4104 2.048 0 1.3234-1.679 1.1398-4.9243-0.53838-2.7764-1.4357-2.9023-1.3755-7.3252 3.5-2.4752 2.7285-4.3069 4.9608-4.0705 4.9608s2.4882-0.93772 5.004-2.0838 6.0912-2.33 7.9451-2.6308 3.3708-0.99439 3.3708-1.5412c0-1.3539 6.182-0.0491 7.2061 1.5209 0.44305 0.67922 0.75367 6.0357 0.69027 11.903s0.21553 11.204 0.61983 11.858c0.53277 0.86205 3.1087 0.99419 9.3594 0.48013 4.7434-0.39011 8.3281-0.40486 7.966-0.0328-0.75526 0.77606-3.0472 1.2756-7.3416 1.6001-2.4442 0.1847-2.1663 0.35633 1.5 0.92632 3.8598 0.60008 3.3263 0.72098-3.75 0.84981-5.4102 0.0985-8.25 0.54174-8.25 1.2877 0 0.81395 2.4889 0.94863 8.75 0.47345 6.0228-0.45709 8.2825-0.34888 7.25 0.34717-0.825 0.55618-4.5109 1.0181-8.191 1.0266-3.9068 9e-3 -6.9836 0.48884-7.3943 1.1533-0.51963 0.84078 2.2074 0.94935 10.441 0.41571 7.7845-0.50453 11.144-0.3954 11.144 0.36199 0 0.66694-2.5981 1.1038-6.75 1.1351-7.4372 0.056-12.021 0.46055-23.25 2.052-4.125 0.58462-10.65 0.91315-14.5 0.73008l-7-0.33287-0.30697 3.693c-0.22275 2.6798 0.25738 4.2574 1.75 5.75 1.1313 1.1313 2.057 3.1286 2.057 4.4383 0 1.9649 0.74314 2.5707 4.25 3.4647 2.3375 0.59586 5.9898 1.9775 8.1163 3.0702 3.161 1.6244 5.04 1.8772 10.3 1.3861 5.2077-0.4863 6.3763-0.33417 6.1337 0.79849-0.23345 1.0898 1.6909 1.5098 8.7002 1.8992l9 0.5-7.7908 1.25c-4.285 0.6875-9.8725 1.25-12.417 1.25s-4.3058 0.32006-3.9146 0.71124 4.693 0.58113 9.5595 0.42209 9.1047 0.12572 9.418 0.63277c0.33291 0.53866-6.3781 1.2075-16.143 1.6088-9.1919 0.37778-18.738 1.1034-21.213 1.6124-6.0699 1.2484-23.009 1.0596-30.979-0.34528v2e-5zm33.711-2.7298c4.9823-0.9968 7.1656-2.3475 5.8771-3.636-0.32482-0.32482-5.5933-0.77442-11.708-0.99911-12.667-0.46549-15.902-1.3306-15.902-4.2525 0-1.1136-0.60312-2.0248-1.3403-2.0248-2.5175 0-13.66 6.1527-13.66 7.5429 0 4.6811 20.69 6.579 36.733 3.3694zm-1.1299-6.4121c-1.0435-0.78989-2.3637-1.148-2.9336-0.79569-0.59802 0.3696-0.21852 0.96071 0.89733 1.3977 3.1266 1.2244 4.0777 0.94322 2.0363-0.60199zm-7.5437-2.0002c-0.61637-1.3977-7.9534-3.7545-9.6552-3.1015-2.1029 0.80698-1.6934 2.5464 0.84618 3.5943 2.877 1.1871 9.3892 0.82278 8.809-0.49286zm-3.304-6.75c-0.63336-1.9232-4.755-2.2002-4.755-0.31955 0 1.021 0.90283 1.5696 2.5833 1.5696 1.6196 0 2.4298-0.46635 2.1717-1.25zm-29.601-22.666c0.47769-1.9709 1.0694-6.0585 1.315-9.0835l0.44645-5.5-6.2078-5.3156c-8.9587-7.671-12.338-10.184-13.692-10.184-0.65745 0-1.9425-0.83547-2.8556-1.8566-3.155-3.5281-17.237-7.1434-27.825-7.1434-4.8462 0-5.3519 0.21748-5.9382 2.5537-0.35252 1.4045-0.17865 4.8918 0.38638 7.7494 0.57617 2.914 0.64447 5.4323 0.15552 5.7345-0.4795 0.29634-1.1706 3.0812-1.5358 6.1886l-0.66402 5.6498 3.8804-0.188c2.1342-0.1034 4.1165-0.50045 4.405-0.88234s2.3135-0.30563 4.5 0.16946 6.6754 1.0082 9.9754 1.1848 7.125 0.88501 8.5 1.5744c3.1393 1.5739 5.266 1.5997 6.7833 0.0824 0.65084-0.65084 1.5153-0.85137 1.921-0.44563s0.0757 1.1786-0.73333 1.7174c-1.2352 0.82263-1.0945 1.2549 0.87733 2.6956 1.2916 0.94375 4.8863 4.0559 7.9882 6.9159 6.1878 5.7052 6.5607 5.6328 8.3177-1.6165v-2e-5zm-23.154-13.524c0-1.4075 0.45-2.559 1-2.559s1 0.87344 1 1.941-0.45 2.2191-1 2.559c-0.56716 0.35052-1-0.48962-1-1.941zm-14.333-0.22569c-1.068-1.068-0.7688-3.3333 0.44032-3.3333 0.60884 0 0.85912 0.64593 0.55618 1.4354s-0.0136 1.6539 0.64301 1.921c0.72568 0.29522 0.76901 0.51662 0.11049 0.56461-0.59584 0.0434-1.3833-0.22105-1.75-0.58772zm-12.667-5.3333c0-0.55 0.45-1 1-1s1 0.45 1 1-0.45 1-1 1-1-0.45-1-1zm20 0c0-0.55 0.19844-1 0.44098-1s0.7191 0.45 1.059 1 0.14148 1-0.44098 1-1.059-0.45-1.059-1zm-10-2.441c0-0.24254 0.45-0.7191 1-1.059s1-0.14148 1 0.44098-0.45 1.059-1 1.059-1-0.19844-1-0.44098zm-9-4.559c0-0.55 0.45-1 1-1s1 0.45 1 1-0.45 1-1 1-1-0.45-1-1zm-3-2.941c0-0.58246 0.45-1.059 1-1.059s1 0.19844 1 0.44098-0.45 0.7191-1 1.059-1 0.14148-1-0.44098zm19-2.5c0-0.24254 0.45-0.7191 1-1.059s1-0.14148 1 0.44098-0.45 1.059-1 1.059-1-0.19844-1-0.44098zm-9-1.559c-1.2068-0.77988-1.0486-0.97237 0.80902-0.98469 1.2876-9e-3 2.0356 0.42706 1.691 0.98469-0.74319 1.2025-0.63926 1.2025-2.5 0zm67.087 30.263c-0.80037-1.3746-1.0332-0.64317-1.0569 3.3205-0.0167 2.7958 0.30709 5.4256 0.71959 5.8438 1.1762 1.1927 1.4849-7.1934 0.33728-9.1643zm6.2824 6.4872c0.33164-1.2375 0.60913-6.1875 0.61664-11 8e-3 -5.1576 0.42421-8.75 1.0136-8.75 0.55 0 1-0.9 1-2s-0.43588-2-0.96862-2-0.70959 0.675-0.39301 1.5 0.11496 1.5-0.44805 1.5-1.1936-0.50971-1.4012-1.1327c-0.63008-1.8902-4.9455 0.0302-4.4118 1.9634 0.25349 0.91814 1.0201 6.2818 1.7035 11.919 1.2319 10.162 2.1264 12.338 3.2889 8zm-6.7655-12.479c-0.33229-0.33229-0.56864 0.25834-0.52522 1.3125 0.048 1.165 0.28494 1.4019 0.60416 0.60417 0.28887-0.72188 0.25335-1.5844-0.0789-1.9167h-4e-5zm-129.58-4.2336c-1.1477-2.1445-4.0199-1.7374-4.0199 0.56975 0 0.82437 1.0349 1.393 2.5352 1.393 2.2093 0 2.4002-0.25232 1.4848-1.9628zm14.48 0.21794 4-0.7228-6-0.57503c-3.7384-0.35828-6.2769-0.17592-6.7347 0.48382-0.48633 0.70091-0.73986 0.63628-0.75-0.19117-0.00842-0.6875-0.46531-1.25-1.0153-1.25s-1 0.675-1 1.5c0 1.6815 4.6749 1.9885 11.5 0.75518zm100.67-3.0456c0.18333-0.43473 3.2583-1.4539 6.8333-2.2647 5.8086-1.3175 6.5324-1.7517 6.8042-4.0828 0.25204-2.1613-0.44975-3.0503-4.0935-5.1857-5.1553-3.0212-8.8632-7.5835-12.346-15.191-1.3812-3.017-2.5938-5.4855-2.6946-5.4855s-1.7553 0.46732-3.6767 1.0385-6.6434 1.265-10.493 1.542-8.575 0.93208-10.5 1.4559-5.525 0.95993-8 0.96905c-6.1038 0.0225-12 1.0668-12 2.1254 0 0.47804 1.0776 0.86916 2.3947 0.86916 3.551 0 15.839 3.9633 17.862 5.7613 0.96628 0.85864 2.5894 2.0511 3.607 2.6499 5.4334 3.1975 10.475 7.0041 15.27 11.53 3.6837 3.4768 6.1947 5.0588 8.0296 5.0588 1.4684 0 2.8198-0.3557 3.0032-0.79044zm-89.167-1.2096c0-0.55-0.45-1-1-1s-1 0.45-1 1 0.45 1 1 1 1-0.45 1-1zm119.61-2.5818c-0.33385-0.86998-0.60699-1.77-0.60699-2s-0.40787-0.41821-0.90638-0.41821-0.67103 0.9-0.38337 2 0.96867 2 1.5134 2 0.71721-0.7118 0.38337-1.5818zm13.393-0.35919c0-0.51754-0.45-1.2191-1-1.559s-1 0.0835-1 0.94098 0.45 1.559 1 1.559 1-0.42344 1-0.94098zm-24-2.1756c0-0.48585-0.9-0.88337-2-0.88337s-2 0.63287-2 1.4064c0 0.91405 0.70014 1.2233 2 0.88337 1.1-0.28766 2-0.92053 2-1.4064zm30 0.11663c0-0.55-0.47656-1-1.059-1s-0.7809 0.45-0.44098 1 0.81648 1 1.059 1 0.44098-0.45 0.44098-1zm-28-3.941c0-1.3573-1.7645-2.249-2.4037-1.2148-0.59765 0.96702 0.26831 2.1558 1.5704 2.1558 0.45833 0 0.83333-0.42344 0.83333-0.94098zm9.226-5.559c1.7184-2.3116 0.56043-2.7838-1.226-0.5-1.0755 1.375-1.9655 2.0275-1.9778 1.45s0.51776-1.59 1.1778-2.25c0.75543-0.75543 0.84805-1.5422 0.25-2.1237-2.1114-2.0529-30.33-12.529-31.256-11.604-0.21943 0.21942 0.6189 2.437 1.8629 4.928 2.5726 5.1511 8.2575 11.408 12.31 13.548 2.4688 1.3038 3.0992 1.2558 6.3272-0.48263l3.5852-1.9307 1.5068 2.2694 1.5068 2.2694 2.5949-2.2868c1.4272-1.2577 2.9294-2.7368 3.3383-3.2868zm-37.455-18.978c0.14891-0.12642-0.23519-2.5889-0.85355-5.4722-1.3301-6.2021-2.5265-5.582-3.4994 1.8136-0.69957 5.318-0.6854 5.3568 1.6883 4.6258 1.3166-0.4055 2.5157-0.8407 2.6646-0.96711zm-107.27-49.522c-0.33992-0.55-0.81648-1-1.059-1s-0.44098 0.45-0.44098 1 0.47656 1 1.059 1 0.7809-0.45 0.44098-1zm143.34-6.5563c7.4631-2.2415 10.221-6.3827 6.4054-9.6169-3.2902-2.7886-9.2859-5.7814-14.786-7.3801-9.8084-2.8514-24.025 1.1264-27.547 7.7078-0.9631 1.7996 0.64489 5.8456 2.3232 5.8456 0.4177 0 1.097 0.087 1.5094 0.1933s1.0343-1.1312 1.3817-2.75c0.59853-2.7888 0.63789-2.7452 0.75 0.83145 0.0983 3.1368 0.58308 3.9577 2.8683 4.8571 7.3294 2.8846 18.115 3.0088 27.095 0.31185zm-27.675-5.4437c-0.0162-1.375 0.35734-3.4 0.83003-4.5 0.85943-2 0.85943-2 0.83003 0-0.0162 1.1-0.38968 3.125-0.83003 4.5l-0.80064 2.5-0.0294-2.5h1e-5zm-117.17-6c0-0.55-0.45-1-1-1s-1 0.45-1 1 0.45 1 1 1 1-0.45 1-1zm0.60417-33.729c-0.3323-0.33229-0.56864 0.25833-0.52522 1.3125 0.048 1.1649 0.28494 1.4019 0.60416 0.60417 0.28887-0.72187 0.25335-1.5844-0.0789-1.9167h-4e-5zm1.4449-37.689c-0.57829-4.3548-1.2759-8.1423-1.5502-8.4167-1.2446-1.2445-1.4808 0.94146-0.53515 4.9526 1.1253 4.7735 2.6569 30.695 1.7655 29.882-0.3015-0.275-0.85268-5.225-1.2248-11-1.526-23.68-6.9526-37.662-16.874-43.477-8.0171-4.6983-15.672-2.6148-25.117 6.836-6.3711 6.3755-10.581 15.093-13.35 27.641-3.4134 15.471-3.6071 17.107-1.9508 16.472 0.82935-0.31825 2.1996-3.8229 3.2305-8.2622 2.146-9.2418 5.1359-18.325 7.7372-23.505 4.4003-8.7622 14.684-16.905 21.351-16.905 5.6074 0 12.466 5.5946 16.079 13.116 2.4873 5.1776 5.3246 17.685 5.9168 26.084 0.79341 11.251 1.386 14 3.018 14 0.80008 0 1.5503 0.5625 1.6671 1.25 0.82357 4.8472 0.66831-22.405-0.16332-28.668zm-6.067 20.168c-0.02645-6.2676-2.5345-21.665-4.446-27.296-3.3399-9.8374-11.959-17.372-17.493-15.291-8.7572 3.2924-20.71 23.011-22.466 37.062l-0.69105 5.5309 9.1651-0.52257c9.5044-0.54191 23.721 1.042 29.948 3.3366 5.5711 2.0528 6.0018 1.8498 5.9821-2.8194zm-42.984-18.25c1.3412-4.3275 6.3895-13.923 8.8121-16.75 0.82489-0.9625 1.0335-1.75 0.46351-1.75-2.4792 0-9.3888 12.848-11.831 22-1.0918 4.0908 1.158 1.0098 2.5557-3.5zm45.124-16.175c-1.1788-2.0272-1.4635-1.3784-0.49853 1.1363 0.34294 0.8937 0.83419 1.4143 1.0917 1.1568s-9e-3 -1.2894-0.59313-2.2931zm61.378 241.68c-0.33992-0.55 0.0835-1 0.94098-1s1.559 0.45 1.559 1-0.42344 1-0.94098 1-1.2191-0.45-1.559-1zm-128.81-1.6395c-0.35171-0.35171-0.39562-1.034-0.0976-1.5163 0.63919-1.0342 2.4037-0.14245 2.4037 1.2148 0 1.0751-1.3554 1.2523-2.3062 0.3015h3e-5zm-61.694-3.3605c0-0.55 0.45-1 1-1s1 0.45 1 1-0.45 1-1 1-1-0.45-1-1zm203.55-0.91459c-0.32198-0.52097-0.15917-1.2106 0.3618-1.5326s1.2106-0.15917 1.5326 0.3618 0.15917 1.2106-0.3618 1.5326-1.2106 0.15917-1.5326-0.3618zm-169.55-1.0854c0-0.55 0.675-1 1.5-1s1.5 0.45 1.5 1-0.675 1-1.5 1-1.5-0.45-1.5-1zm-14-3.941c0-0.58246 0.45-1.059 1-1.059s1 0.19844 1 0.44098-0.45 0.7191-1 1.059-1 0.14148-1-0.44098zm144.5-0.05902c-0.33992-0.55-0.14148-1 0.44098-1s1.059 0.45 1.059 1-0.19844 1-0.44098 1-0.7191-0.45-1.059-1zm-211.5-2.5833c0-1.7659 2.1528-1.4584 2.7708 0.39583 0.21771 0.65312-0.31667 1.1875-1.1875 1.1875s-1.5833-0.7125-1.5833-1.5833zm91.125-1.2917c0.20625-0.61875 0.7125-1.125 1.125-1.125 1.1711 0 0.87974 1.4568-0.375 1.875-0.61875 0.20625-0.95625-0.13125-0.75-0.75zm186.88-0.625c0-0.91667 0.5625-1.4792 1.25-1.25 1.4157 0.47189 1.26 2.08-0.25 2.5833-0.55 0.18334-1-0.41666-1-1.3333zm-94-0.5c0-0.55 0.45-1 1-1s1 0.45 1 1-0.45 1-1 1-1-0.45-1-1zm-101-0.88197c0-0.55 0.45-1.2781 1-1.618s1-0.16803 1 0.38197-0.45 1.2781-1 1.618-1 0.16803-1-0.38197zm253-0.11803c0-0.55 0.45-1 1-1s1 0.45 1 1-0.45 1-1 1-1-0.45-1-1zm-300.53-1.0502c-0.95021-1.5375 0.35135-2.5295 1.6348-1.246 0.71818 0.71818 0.73543 1.2775 0.0524 1.6996-0.55992 0.34605-1.3192 0.1419-1.6873-0.45366h3e-5zm316.13 0.20645c-0.34605-0.55992-0.1419-1.3192 0.45366-1.6873 1.5375-0.95021 2.5295 0.35135 1.246 1.6348-0.71818 0.71818-1.2775 0.73543-1.6996 0.0524v3e-5zm-342.6-1.1562c0-0.55 0.45-1 1-1s1 0.45 1 1-0.45 1-1 1-1-0.45-1-1zm324 0c0-0.55 0.45-1 1-1s1 0.45 1 1-0.45 1-1 1-1-0.45-1-1zm-110.72-3.25c-3.0918-3.9977-2.6836-4.9516 0.53491-1.25 1.1956 1.375 1.7818 2.5 1.3028 2.5s-1.306-0.5625-1.8377-1.25zm-236.01-0.35417c0.33229-0.33229 1.1948-0.36781 1.9167-0.0789 0.79773 0.31922 0.56078 0.55618-0.60417 0.60416-1.0542 0.0434-1.6448-0.19293-1.3125-0.52522v-4e-5zm286.73-4.3958c0-0.55 0.45-1 1-1s1 0.45 1 1-0.45 1-1 1-1-0.45-1-1zm-90-11.441c0-0.24254 0.45-0.7191 1-1.059s1-0.14148 1 0.44098-0.45 1.059-1 1.059-1-0.19844-1-0.44098zm163.24-6.2461c0.95609-0.25029 2.7561-0.25937 4-0.0202s0.46166 0.44398-1.7383 0.45508-3.2178-0.18461-2.2617-0.4349v2e-5zm-172.3-13.504c-0.30773-6.0985 0.36198-19.396 1.0646-21.139 0.57769-1.433 0.89618 1.7998 0.93804 9.5214 0.0368 6.787-0.35607 11.95-0.93661 12.309-0.55 0.33992-1.0297 0.029-1.066-0.69098zm10.081-3.3924c8e-3 -2.7042 0.44307-5.5917 0.96587-6.4167 0.63956-1.0092 0.81109 0.42281 0.52429 4.3771-0.53043 7.3132-1.5108 8.655-1.4902 2.0396zm11.985 2.5833c0-0.55 0.45-1 1-1s1 0.45 1 1-0.45 1-1 1-1-0.45-1-1zm-6-3.6076c0-1.4991 0.31302-2.4127 0.69561-2.0301 1.0918 1.0918 1.2192 3.5723 0.21532 4.1928-0.50101 0.30964-0.91093-0.66357-0.91093-2.1627zm-31.084-2.1126c-0.82115-2.1598-0.71304-2.9551 0.52475-3.8602 0.85745-0.62698 1.559-1.6529 1.559-2.2797 0-1.4162 2.6558-1.5058 3.5132-0.11846 0.70718 1.1442-2.5796 8.9127-3.7879 8.9529-0.42611 0.0142-1.2402-1.1983-1.809-2.6945zm-49.027 0.97028c-0.0609-0.4125-0.0343-1.7195 0.0591-2.9045s-0.25456-2.4167-0.77316-2.7372c-0.96343-0.59543 1.6844-7.6083 2.8726-7.6083 0.80894 0 2.9522 4.6754 2.9522 6.4401 0 0.74028-0.675 1.605-1.5 1.9216s-1.5 1.7147-1.5 3.107c0 2.2203-1.8193 3.7557-2.1107 1.7814h-5e-5zm2.5986-8.2696c-0.56061-0.90708-0.93223-0.87942-1.5469 0.11512-1.0543 1.7059-0.0185 3.382 1.2848 2.0788 0.55-0.55 0.66795-1.5372 0.26213-2.1939zm27.534 6.8411c-0.0122-0.92322-0.74399-2.4003-1.6261-3.2825-1.4719-1.4719-1.3912-1.8166 0.98037-4.1882l2.5843-2.5843 1.0196 2.6818c1.33 3.4982 1.3115 3.6216-0.98037 6.5516-1.5142 1.9357-1.9606 2.1211-1.9778 0.82143zm11.978 0.40108c0-0.63786-0.675-0.90072-1.5-0.58414-2.2319 0.85645-1.9603-4.9118 0.32874-6.9834 1.9678-1.7808 3.649-2.237 2.7231-0.73891-0.31139 0.50385-0.16083 1.9822 0.33459 3.2853 0.63049 1.6583 0.48261 2.941-0.49284 4.275-0.76649 1.0482-1.3936 1.384-1.3936 0.74612zm-34.29-6.2225c0.28766-1.1 0.8784-2 1.3128-2s0.5544 0.9 0.26674 2-0.8784 2-1.3128 2-0.5544-0.9-0.26674-2zm60.561 1.3958c0.33229-0.33229 1.1948-0.36781 1.9167-0.0789 0.79773 0.31922 0.56078 0.55618-0.60417 0.60416-1.0542 0.0434-1.6448-0.19293-1.3125-0.52522v-4e-5zm6.2638-2.1458c-0.37362-0.9625-0.81701-4.675-0.9853-8.25s-0.10222-4.9307 0.14683-3.0127 0.7926 3.943 1.2079 4.5c0.80596 1.0809 1.447 8.5127 0.73423 8.5127-0.23338 0-0.73002-0.7875-1.1036-1.75zm-4.2825-3.75c-0.0111-2.2 0.18461-3.2178 0.4349-2.2617s0.25937 2.7561 0.0202 4-0.44398 0.46166-0.45508-1.7383h-2e-5zm16.82 3.5c-0.15267-0.275-0.42591-2.975-0.60722-6-0.24072-4.0164-0.0628-5.0245 0.65974-3.7372 0.54416 0.96956 0.81741 3.6696 0.60722 6s-0.50707 4.0122-0.65974 3.7372zm-59.301-10.107c-0.43374-2.9552 1.7701-8.8698 3.3112-8.8866 0.32022-3e-3 1.0552 1.5348 1.6333 3.4184 0.95585 3.1144 0.80103 3.6643-1.7086 6.0687l-2.7597 2.644-0.47618-3.2445zm11.229 1.1661c0-1.0675-0.4233-2.2026-0.94066-2.5224-0.98518-0.60887 1.8793-6.5191 3.165-6.5304 0.39838-3e-3 1.4135 1.3264 2.2559 2.9554 1.435 2.775 1.4051 3.0293-0.47432 4.0352-1.1032 0.59043-2.0059 1.7327-2.0059 2.5383s-0.45 1.4648-1 1.4648-1-0.87344-1-1.941zm9.4546-2.4676c0.0819-2.4247 0.74319-5.1247 1.4696-6 1.3606-1.6394 3.2006-2.1706 2.9144-0.84139-0.0888 0.4125 0.38053 2.0677 1.043 3.6782 1.1063 2.6894 0.97678 3.1145-1.5885 5.214-1.5362 1.2572-3.0617 2.3021-3.3901 2.3218s-0.53017-1.9479-0.44829-4.3726zm21.74 0.90861c-0.0204-1.65 0.18706-2.4461 0.46099-1.769s0.29059 2.027 0.0371 3-0.47766 0.41903-0.49804-1.231h-5e-5zm-62.596-1.9607c-0.3953-1.575 0.0659-3.5846 1.2812-5.5831 2.0586-3.3852 2.5202-3.154 3.5814 1.7938 0.5553 2.5891 0.37586 3.25-0.8824 3.25-0.86871 0-1.5795 0.675-1.5795 1.5 0 2.4145-1.7271 1.7233-2.4008-0.96072zm11.115-6e-3c-1.2753-0.93249-1.5571-2.0673-1.0916-4.395 0.77394-3.8697 1.891-3.9795 3.7578-0.36945 1.1215 2.1687 1.174 3.1208 0.24226 4.3949-0.98014 1.3404-1.4918 1.4054-2.9085 0.36946zm46.286-1.4743c0-1.6175 0.35595-3.161 0.79101-3.4299s0.61082 1.0546 0.39059 2.941c-0.49064 4.2027-1.1816 4.4886-1.1816 0.48887zm12.079 1.5243c-0.0434-1.0542 0.19293-1.6448 0.52522-1.3125s0.36781 1.1948 0.0789 1.9167c-0.31922 0.79773-0.55618 0.56078-0.60416-0.60417h4e-5zm9.0789-1.5833c0-1.375 0.22698-1.9375 0.50439-1.25s0.27741 1.8125 0 2.5-0.50439 0.125-0.50439-1.25zm-13.408-3.3318c-1.2008-2.9327-0.94511-11.263 0.30721-10.011 0.58147 0.58147 0.91897 3.484 0.75 6.45-0.20432 3.5867-0.55839 4.7793-1.0572 3.561zm4.5994-7.6682c0-4.675 0.17226-6.5875 0.3828-4.25s0.21053 6.1625 0 8.5-0.3828 0.425-0.3828-4.25zm8.5928 7.75c-0.66184-2.8649-0.85981-11.748-0.26171-11.744 0.45071 3e-3 0.94914 2.7034 1.1076 6s0.046 5.9939-0.25 5.9939-0.56415-0.1125-0.59592-0.25zm4.2527-2.25c-0.0204-1.65 0.18706-2.4461 0.46099-1.769s0.29059 2.027 0.0371 3-0.47766 0.41903-0.49804-1.231h-5e-5zm-87.177-6.953c-1.2846-3.3788-1.2742-3.8903 0.14264-7 1.464-3.2131 2.0347-3.1876 3.5895 0.16012 1.6483 3.5492 1.5974 4.0357-0.73212 6.9972l-1.9821 2.5199-1.0179-2.6772zm2.1821-4.747c-0.93333-0.93333-1.2-0.66667-1.2 1.2s0.26667 2.1333 1.2 1.2 0.93333-1.4667 0-2.4zm7.8703 4.8849c-1.3821-3.635-1.3645-3.7517 0.98795-6.5766 2.189-2.6285 2.1329-2.6401 3.9329 0.81249 1.0458 2.006 1.0137 2.6058-0.18714 3.5-0.79706 0.59355-1.9474 1.9792-2.5563 3.0792-1.056 1.9077-1.1565 1.8701-2.1774-0.8151zm2.9297-4.2439c0-0.85746-0.45-1.2809-1-0.94098s-1 1.0415-1 1.559 0.45 0.94098 1 0.94098 1-0.70156 1-1.559zm8 3.759c0-0.99-0.41641-2.2275-0.92536-2.75-0.57186-0.58708-0.0367-2.0548 1.4008-3.8421l2.3262-2.8921 1.5985 3.0912c1.5316 2.9618 1.4996 3.198-0.76552 5.6421-2.7958 3.0168-3.6347 3.1901-3.6347 0.75086zm11-0.64098c0-1.3425-0.47931-2.7372-1.0651-3.0993-0.69725-0.43092-0.47102-1.3148 0.65498-2.559 2.2501-2.4863 2.8506-2.4036 4.8647 0.67019 1.6305 2.4884 1.6004 2.6489-0.93651 5-3.2552 3.0168-3.518 3.0159-3.518-0.01189zm11 0.64098c0-0.99-0.46907-2.2691-1.0424-2.8424-0.72318-0.72318-0.57006-1.4344 0.5-2.3224 0.84831-0.70403 1.5424-1.9 1.5424-2.6576 0-2.4731 1.4641-1.3888 3.2459 2.4038 1.719 3.659 1.7113 3.7429-0.5 5.4452-2.8767 2.2146-3.7459 2.2084-3.7459-0.02654zm8.5365-0.0851c-0.62784-1.9781 1.224-7.1149 2.565-7.1149 1.5631 0 1.7885 1.7486 0.68776 5.335-1.2428 4.0494-2.3416 4.6507-3.2528 1.7799v-1e-5zm17.75-6.6149c8e-3 -2.75 0.20172-3.7563 0.43157-2.2362s0.22371 3.7701-0.0136 5-0.42542-0.0137-0.41792-2.7638h-5e-5zm-74.091-5c-0.0204-1.65 0.18706-2.4461 0.46099-1.769s0.29059 2.027 0.0371 3-0.47766 0.41903-0.49804-1.231h-5e-5zm11.805-1.1769c0-1.186-0.51901-2.3295-1.1534-2.5409-0.78803-0.26267-0.59322-1.2393 0.61501-3.0833 2.1741-3.3182 2.846-3.361 4.4913-0.28675 1.1543 2.1568 1.0135 2.7114-1.331 5.2398-2.4778 2.6722-2.622 2.7091-2.622 0.67121zm27.254-1.0211c-1.0967-2.3616-0.98483-2.96 0.93537-5.004l2.181-2.3216 1.3146 3.1266c1.6889 4.0167 1.6556 4.897-0.18537 4.897-0.825 0-1.5 0.45-1.5 1 0 1.9038-1.5053 0.9729-2.7457-1.698zm9.2933-0.89999c-1.1057-5.8937 3.0231-8.8344 5.3214-3.7901 1.2866 2.8237 0.4773 4.5972-2.9297 6.4205-1.444 0.77278-1.8338 0.34407-2.3918-2.6304zm-46.673 0.63963c-0.89375-0.98542-2.2438-2.0387-3-2.3405-1.1553-0.46116-1.1582-0.70086-0.0182-1.5 0.96346-0.67541 1.0312-1.1523 0.23369-1.6452-0.61769-0.38175-0.86418-1.113-0.54774-1.625 1.1566-1.8713 2.3393-0.85171 2.6902 2.3191l0.35962 3.25 1.2839-3 1.2839-3 1.4411 2.7296c1.1764 2.2281 1.2093 3.1008 0.17933 4.75-1.4964 2.3961-1.7847 2.4006-3.9057 0.0621h-4e-5zm19.291-0.14771c-1.1506-1.8424-1.0299-2.4098 0.96442-4.5326l2.2796-2.4266 1.3784 2.6307c1.2404 2.3674 1.174 2.821-0.66314 4.5326-2.5136 2.3418-2.3645 2.3495-3.9593-0.20409zm9.4399-0.3287c-0.45585-1.8163-0.0598-3.1111 1.397-4.568l2.0332-2.0332 1.06 2.7679c1.1652 3.0429 0.19403 5.57-2.3321 6.068-0.92827 0.183-1.77-0.68864-2.158-2.2348zm27.024 0.64427c-0.59906-0.9693 2.3251-7.2095 3.3784-7.2095 0.61969 0 0.66715 3.3818 0.10174 7.25-0.14556 0.99584-2.8592 0.96429-3.4801-0.0405v3e-5zm-74.663-14.952c-3.9769-4.2585-7.6966-8.7649-8.2658-10.014-0.79809-1.7516-1.512-2.1007-3.118-1.5249-7.9344 2.8448-17.583-3.4565-17.583-11.483 0-2.7923 1.4736-5.8822 4.2702-8.954l2.0203-2.2191-2.3953-6.2809c-2.1178-5.5534-2.3866-7.8446-2.3207-19.781 0.086-15.565 0.71886-20.978 3.3708-28.834 1.0487-3.1062 1.7451-5.8093 1.5476-6.0067s-1.9171 0.15517-3.8213 0.78363-5.4219 1.3668-7.817 1.6407-5.0297 0.68463-5.8547 0.91265-4.65-0.19512-8.5-0.94033-7.1389-1.2239-7.3086-1.0637 0.44254 2.0273 1.3606 4.1493c2.4892 5.7536 3.4187 9.9983 4.1295 18.858 1.5447 19.255-0.30275 38.133-4.5017 46-2.7959 5.2384-12.008 18.851-15.564 23-5.3495 6.2403-4.9948 3.7344 0.49537-3.5 7.7175-10.169 13.756-20.878 15.99-28.357 2.1844-7.3134 2.9698-27.289 1.5194-38.643-1.2998-10.175-4.8402-20.079-8.433-23.588-2.9626-2.8941-3.1753-3.4573-2.0098-5.3236 2.1176-3.3908 10.1-5.45 21.323-5.501 11.192-0.05085 18.35 1.5598 21.411 4.818 2.0352 2.1664 2.0367 2.227 0.17672 7.1399-3.0521 8.0616-6.0876 24.741-6.0876 33.45 0 8.6473 2.3068 21.093 4.575 24.682 0.75667 1.1975 2.3858 2.3225 3.6203 2.5 1.4358 0.20647 3.8369 2.6084 6.6638 6.666 4.1869 6.0096 4.3612 6.5324 3.3154 9.94-1.0382 3.3829-0.8867 3.8682 2.5468 8.1568 2.0079 2.508 5.1864 6.135 7.0632 8.06 4.4689 4.5835 7.6009 9 6.3824 9-0.53313 0-4.2232-3.4842-8.2001-7.7426zm-11.212-14.507c2.6763-3.3452 2.4102-5.7938-1.2248-11.27-5.8118-8.7559-9.4886-9.3022-12.987-1.9296-2.1121 4.4509-1.4254 7.7215 2.4311 11.578 2.1942 2.1942 3.805 2.8719 6.8263 2.8719 2.175 0 4.4045-0.5625 4.9545-1.25zm-7.9703-1.3037c-3.3378-1.8116-5.3116-7.9308-3.8219-11.849 1.2502-3.2884 2.2751-3.394 1.461-0.15057-0.79622 3.1724 1.2427 9.3043 3.4944 10.509 0.96704 0.51754 2.8435 0.70568 4.1699 0.4181 2.3359-0.50645 2.3507-0.47341 0.47054 1.0513-2.3238 1.8845-2.3395 1.8846-5.774 0.0205v1e-5zm-0.66924-6.5445c-1.3419-3.8493-1.3451-3.9018-0.24062-3.9018 0.89404 0 2.4569 6.0014 1.7476 6.7108-0.21522 0.21523-0.89335-1.0488-1.5069-2.809zm-5.3656-74.418c4.4793-1.7925 5.0408-2.5905 3-4.2634-6.5867-5.3994-41.579-3.6061-38.142 1.9548 2.7372 4.4289 26.021 5.9585 35.142 2.3086zm265.45 95.146c-0.71284-4.8788-1.0896-9.077-0.83736-9.3293 0.83321-0.83321 2.765 10.547 2.4462 14.41-0.23548 2.8535-0.63284 1.5985-1.6088-5.0812zm-169.85 4.9026c0.30982-0.80739 0.13297-1.734-0.39301-2.059-1.3478-0.83301-1.1754-1.6301 0.95074-4.3961l1.8626-2.423 1.5283 2.9554c1.4435 2.7913 1.4004 3.0786-0.77578 5.173-2.6543 2.5546-3.9863 2.8693-3.1729 0.74964zm173.68-0.98203c-0.0222-2.1513 0.26838-2.6512 1.0732-1.8464 0.79095 0.79095 0.79957 1.6267 0.0304 2.95-0.94083 1.6186-1.077 1.4825-1.1036-1.1036h1e-5zm-226.03 0.34035c-1.3122-0.94394-1.3032-1.0171 0.0718-0.58446 0.87468 0.27522 2.0981-0.3482 2.7585-1.4057 0.7242-1.1596 0.79367-1.9002 0.17823-1.9002-1.3025 0-1.3123-2.6942-0.0127-3.4974 0.54766-0.33847 1.5191 0.53314 2.1587 1.9369 0.9705 2.13 0.86283 2.8839-0.65073 4.5564-2.0794 2.2977-2.4504 2.3714-4.5037 0.89441h-5e-5zm19.011-1.3612c-1.3173-3.4647-1.2755-4.8648 0.18891-6.3292 1.792-1.792 2.6005-1.4865 4.1875 1.5824 1.338 2.5873 1.2704 2.9444-0.96323 5.0943l-2.402 2.3119-1.0111-2.6594zm2.9889-2.4702c0-0.51754-0.45-1.2191-1-1.559s-1 0.0835-1 0.94098 0.45 1.559 1 1.559 1-0.42344 1-0.94098zm5.5395 2.1208c-0.68785-3.1318 0.73319-7.1798 2.5204-7.1798 0.54427 0 1.4485 1.2072 2.0095 2.6826 0.8674 2.2814 0.65524 3.0473-1.4187 5.1212l-2.4386 2.4386-0.67265-3.0626zm9.2105 2.0817c-2.2134-0.51632-2.2249-2.6491-0.0344-6.3573 2.1827-3.695 2.8291-3.649 4.2054 0.29906 0.94342 2.7063 0.84222 3.4565-0.65217 4.8349-0.97288 0.89736-2.5564 1.4478-3.5189 1.2233h1e-5zm6.9167 0.0717c-1.1986-1.1985-0.70341-3.4712 1.3154-6.0377l1.9821-2.5199 1.0463 2.752c0.83852 2.2055 0.712 3.1214-0.63711 4.6121-1.7975 1.9863-2.6421 2.2582-3.7068 1.1935zm-34.25-2.6877c-0.86416-1.8653-0.7305-2.7746 0.6603-4.4922 0.95907-1.1844 1.9604-2.1535 2.2251-2.1535 1.2405 0 1.5926 5.1961 0.47359 6.9879-1.6017 2.5647-2.0326 2.5208-3.359-0.34225zm-10.215-0.89106c-0.9492-1.1524-0.99302-1.7654-0.16287-2.2784 0.80223-0.4958 0.82347-1.0141 0.0724-1.7652-0.60025-0.60025-0.69486-1.531-0.21725-2.1371 1.4026-1.7801 2.0005-14.28 0.74322-15.537-0.82691-0.82691-0.80706-1.3137 0.0758-1.8594 1.2414-0.76724 1.3678-1.5137 1.5969-9.4276 0.0756-2.6125 0.38798-4.75 0.69417-4.75s0.54018-5.7375 0.51997-12.75c-0.0239-8.2989 0.41515-13.797 1.2577-15.75 1.1684-2.7077 1.258-2.1934 0.92022 5.2788-0.25014 5.5335-0.0232 8.1617 0.68446 7.9259 0.58229-0.1941 1.2961-1.3249 1.5863-2.5129 0.50826-2.0809 0.585-2.0593 2.0959 0.5886 1.4455 2.5334 1.4251 2.9823-0.26038 5.7341-1.7858 2.9156-1.8429 2.9328-2.4349 0.73554-1.157-4.2941-2.3728-2.2168-2.3412 4 0.0291 5.7133 0.15788 6.0833 1.5 4.3089 0.80751-1.0676 1.471-2.4176 1.4744-3s0.67839 0.23007 1.5 1.8054c1.8094 3.4694 1.8084 3.6357-0.038 6.0768-1.4534 1.9215-1.4826 1.9215-2.8968 0-1.1817-1.6056-1.5171-1.6819-1.9409-0.44113-0.86967 2.5461-1.1746 10.836-0.38049 10.346 0.4125-0.25496 0.75-1.337 0.75-2.4046 0-2.7493 1.2342-2.3957 3.1022 0.8888 1.4849 2.611 1.4732 2.9764-0.1603 4.9937-2.1116 2.6078-2.9419 2.7517-2.9419 0.50988 0-0.91666-0.3375-1.3334-0.75-0.92608s-1.2 5.9568-1.75 12.332c-0.83967 9.7332-1.2082 11.339-2.2986 10.015h2e-5zm4.9978-10.363c-0.74561-1.3323-0.60652-2.637 0.51162-4.7992l1.5356-2.9695 1.4741 2.8135c1.3525 2.5813 1.3103 2.9773-0.51162 4.7992-1.9081 1.9081-2.0258 1.9142-3.0097 0.15602zm27.982-2.3432c-0.0636-4.6113 1.9746-6.9938 4.3188-5.0483 2.2374 1.8569 1.73 4.2314-1.4377 6.7287l-2.8271 2.2287-0.054-3.909h5e-5zm-18.181 1.4518c0-0.825-0.45-1.5-1-1.5-1.6913 0-1.1091-2.4621 1.0114-4.2778 2.5336-2.1694 3.2348-2.1589 4.6261 0.0689 0.90018 1.4414 0.66364 2.32-1.2115 4.5-2.6493 3.08-3.426 3.354-3.426 1.2089zm27.12 0c0.1816-1.1-0.0348-2.5822-0.48095-3.2938-0.92394-1.4738 0.94379-4.2062 2.8751-4.2062 1.0699 0 3.1741 4.9538 2.2846 5.3787-0.16427 0.0785-1.3585 1.0379-2.6538 2.132-2.3517 1.9864-2.3547 1.9864-2.025-0.0107v4e-5zm8.5468 0.83333c-1.3469-1.3469-0.61318-6.0718 1.1974-7.7103 1.7629-1.5954 1.9525-1.552 3.4937 0.80026 1.5478 2.3623 1.5112 2.615-0.72872 5.032-2.5242 2.7237-2.9262 2.9142-3.9624 1.8781zm-26.661-2.8236c-1.1662-2.179-1.0992-2.7484 0.53548-4.5547l1.8682-2.0644 1.7733 2.3047c2.2351 2.9048 2.2458 3.7593 0.0678 5.4126-2.4062 1.8266-2.7234 1.7445-4.2448-1.0982h-3e-5zm2.9948-1.5097c0-0.55-0.47656-1-1.059-1s-0.7809 0.45-0.44098 1 0.81648 1 1.059 1 0.44098-0.45 0.44098-1zm32.074 2.138c-0.78141-1.4601-0.48561-2.342 1.3703-4.0855 2.341-2.1993 2.3738-2.2014 3.0089-0.20054 0.62199 1.9597-1.189 6.1481-2.6584 6.1481-0.39835 0-1.1727-0.8379-1.7208-1.862zm-48.497-11.388c0.39134-1.2375 1.391-3.2894 2.2215-4.5597 1.1502-1.7593 1.7079-1.9976 2.3406-1 1.4609 2.3036 0.92184 5.7069-1.073 6.7745-3.1326 1.6765-4.2773 1.2779-3.489-1.2148zm8.8573-0.15686c-0.64092-2.5536 0.96794-6.5931 2.6259-6.5931 0.54427 0 1.4424 1.191 1.9959 2.6468 0.82583 2.1721 0.64955 2.9791-0.98293 4.5-2.5679 2.3923-2.9126 2.3399-3.6388-0.55361zm9.2131-0.60754c-0.41425-2.0712-0.0776-3.6278 1.0758-4.975 1.644-1.92 1.7056-1.8967 2.9779 1.1292 1.673 3.9789 1.6366 4.8602-0.20083 4.8602-0.825 0-1.5 0.45-1.5 1 0 2.3016-1.7974 0.76276-2.3529-2.0144zm10.05 2.2644c-1.7549-3.128-1.5011-6.0857 0.69958-8.1531l2.3569-2.2142 0.61014 2.431c0.34916 1.3912-0.0572 3.7688-0.95011 5.5586-1.6328 3.2731-2.0227 3.6143-2.7165 2.3776zm17.725-2.6597c-0.80084-2.5586-0.65037-3.7944 0.74238-6.097 1.5883-2.6259 1.8036-2.7112 2.3725-0.94061 0.34412 1.071 0.98943 2.872 1.434 4.0023 0.59552 1.5139 0.23534 2.6064-1.3681 4.1497l-2.1764 2.0947-1.0044-3.2091zm-10.094-0.13121c-1.0175-2.1933-0.85543-2.8664 1.2326-5.1194 2.4142-2.605 2.9087-2.377 3.6013 1.6603 0.28784 1.678-1.8402 6.0043-2.9475 5.9922-0.39315-4e-3 -1.242-1.1442-1.8864-2.5331zm17.278-2.8755c0.33422-0.87096 1.047-1.5836 1.584-1.5836 1.3144 0 0.49134 2.2728-1.0035 2.7711-0.73075 0.24358-0.95424-0.21359-0.58051-1.1875zm-48.906-9.3336c-0.49773-2.5688 1.4634-6.25 3.3296-6.25 1.5248 0 1.9572 6.1556 0.53251 7.5804-2.1242 2.1242-3.2692 1.7298-3.8622-1.3304zm8.7565-0.5c-0.77379-2.6284-0.62206-3.5847 0.7932-5 2.3024-2.3024 3.0339-2.2008 4.3324 0.602 0.89889 1.9403 0.69511 2.7866-1.202 4.9922-1.2564 1.4607-2.4379 2.6558-2.6256 2.6558s-0.77173-1.4625-1.298-3.25zm20.26 2.6008c-0.29437-0.47631-0.83546-2.4664-1.2024-4.4225-0.49173-2.6212-0.25572-3.898 0.89739-4.855 1.3144-1.0908 1.6765-1.0006 2.2644 0.56414 0.38492 1.0244 1.2661 2.3126 1.9581 2.8626 0.9801 0.77894 0.74533 1.6319-1.062 3.8584-1.2762 1.5721-2.5611 2.4687-2.8555 1.9924zm18.307-1.5396c-1.1068-2.3084-1.0514-2.9265 0.39112-4.369 2.3382-2.3382 2.9768-1.2173 1.8537 3.2534l-0.95571 3.8044-1.2891-2.6888zm-29.357 0.52213c-1.7761-1.7761 0.54693-8.3465 2.9436-8.3255 0.48937 4e-3 1.3973 1.1025 2.0176 2.4405 0.95804 2.0665 0.7978 2.7427-1.0644 4.4922-2.3737 2.23-2.879 2.4106-3.8967 1.3929zm3.3333-3.8924c0-0.24254-0.45-0.44098-1-0.44098s-1 0.47656-1 1.059 0.45 0.7809 1 0.44098 1-0.81648 1-1.059zm16.622 1.4212c-0.46733-2.3366-0.18008-3.4776 1.125-4.4682 4.3643-3.3128 6.6327 1.1351 2.6235 5.1442-1.354 1.354-2.6101 2.4618-2.7914 2.4618s-0.61196-1.412-0.95712-3.1379zm15.457-9.2788c-0.0434-1.0542 0.19292-1.6448 0.52522-1.3125s0.36781 1.1948 0.0789 1.9167c-0.31922 0.79773-0.55618 0.56078-0.60416-0.60417h4e-5zm-53.28-3.5029c-0.26462-1.803 0.24298-3.8097 1.3273-5.2472l1.7558-2.3277 0.91729 2.4797c0.71085 1.9216 0.45679 3.1025-1.1288 5.2472-1.1254 1.5221-2.1354 2.7675-2.2446 2.7675s-0.39126-1.3138-0.62694-2.9195zm25.497-1.6922c-0.98856-2.1299-0.92301-3.0264 0.36501-4.9922 0.86348-1.3178 1.6915-2.3961 1.84-2.3961s1.012 1.1325 1.919 2.5168c1.5412 2.3522 1.5324 2.6771-0.13499 4.9686-2.2445 3.0846-2.5153 3.078-3.989-0.09707zm9.3269 0.15752c-1.3461-2.0544-1.383-2.5838-0.22647-3.25 0.75986-0.43769 1.5442-1.6637 1.743-2.7244 0.34426-1.8368 0.4448-1.8453 2.1115-0.17857 2.0208 2.0208 2.2914 5.6657 0.55 7.4072-1.7116 1.7116-2.3629 1.516-4.178-1.2542zm10.333 0.89968c-1.0807-1.3022-0.92131-1.9109 0.98206-3.75l2.2722-2.1955-0.67189 2.25c-0.40245 1.3477-0.24384 2.25 0.39549 2.25 0.58707 0 1.0674-0.675 1.0674-1.5s0.45-1.5 1-1.5c1.3926 0 1.2531 3.3469-0.2 4.8-1.6298 1.6298-3.2998 1.5077-4.8452-0.35452zm-37.362-1.9334c-0.59458-2.369 1.0678-6.5121 2.613-6.5121 0.39835 0 1.2081 0.90401 1.7994 2.0089 0.83817 1.5661 0.68061 2.5511-0.71481 4.4686-2.2693 3.1183-2.9221 3.1244-3.6976 0.03459zm8.057 0.25516c-0.32113-1.228-0.14861-2.668 0.38337-3.2s0.96725-1.8148 0.96725-2.8506c0-2.6989 2.2094-1.5884 3.2901 1.6537 0.70919 2.1276 0.5196 3.1824-0.84249 4.6875-2.2725 2.5111-3.0818 2.4492-3.7982-0.29062zm-20.919-7.5172c-0.27674-0.9625-0.82737-2.5375-1.2236-3.5-0.45949-1.1161-0.26886-1.75 0.52631-1.75 0.68571 0 1.7648-0.70856 2.3981-1.5746 1.0091-1.38 1.3174-1.2643 2.4952 0.93646 1.1611 2.1695 1.1215 2.7334-0.29111 4.146-0.89923 0.89924-1.635 2.0528-1.635 2.5635 0 1.6284-1.7473 0.9961-2.2699-0.82143zm47.758-0.26873c-0.37879-0.61288-0.42254-1.3805-0.0972-1.7058s0.0715-1.218-0.56396-1.9837c-0.89074-1.0733-0.79197-1.7556 0.43113-2.9788 1.7697-1.7697 4.4741-1.1737 5.3795 1.1855 0.7426 1.9352-4.1333 7.1268-5.1494 5.4827h-4e-5zm3.0116-4.9813c-0.33992-0.55-0.81648-1-1.059-1s-0.44098 0.45-0.44098 1 0.47656 1 1.059 1 0.7809-0.45 0.44098-1zm-42.901 0.53758c-0.44686-1.7804-0.0451-3.0912 1.386-4.5224 2.5136-2.5136 2.6535-2.5066 3.3526 0.16708 0.38934 1.4888-0.1729 2.9259-1.7694 4.5224l-2.34 2.34-0.62924-2.5071zm10.023-0.68074c-0.98469-4.9234 2.2683-7.8 4.3732-3.867 0.81334 1.5198 0.67637 2.5828-0.57983 4.5-2.1691 3.3104-3.0335 3.1662-3.7934-0.63297zm9.5346 0.58601c-0.82364-1.8077-0.86037-3.1266-0.12534-4.5 1.3194-2.4653 2.1718-2.4497 3.7445 0.06854 1.0376 1.6615 0.97247 2.4443-0.37446 4.5-0.89683 1.3687-1.7316 2.4886-1.8551 2.4886s-0.74878-1.1507-1.3896-2.5572zm9.8441 1.0572c0-0.825-0.45-1.5-1-1.5-1.6147 0-1.153-1.847 1-4 2.4961-2.4961 3.206-2.501 4.7472-0.0332 1.0504 1.682 0.86147 2.3336-1.3049 4.5-2.9353 2.9353-3.4423 3.0874-3.4423 1.0332z"/>
</svg>
