<?xml version="1.0" ?><!DOCTYPE svg  PUBLIC '-//W3C//DTD SVG 1.1//EN'  'http://www.w3.org/Graphics/SVG/1.1/DTD/svg11.dtd'><svg enable-background="new 0 0 512 512" id="Layer_1" version="1.1" viewBox="0 0 512 512" xml:space="preserve" xmlns="http://www.w3.org/2000/svg" xmlns:xlink="http://www.w3.org/1999/xlink"><linearGradient gradientUnits="userSpaceOnUse" id="SVGID_1_" x1="256" x2="256" y1="512" y2="-9.094947e-013"><stop offset="0" style="stop-color:#ED8F03"/><stop offset="1" style="stop-color:#FFB75E"/></linearGradient><circle cx="256" cy="256" fill="url(#SVGID_1_)" r="256"/><path d="M389.4,238.4c3.9-3.8,5.3-9.4,3.6-14.6c-1.7-5.2-6.1-8.9-11.5-9.7l-76.1-11.1c-1.2-0.2-2.2-0.9-2.7-1.9  l-34-68.9c-2.4-4.9-7.3-7.9-12.7-7.9s-10.3,3-12.7,7.9l-34,68.9c-0.5,1-1.5,1.8-2.7,1.9l-76.1,11.1c-5.4,0.8-9.8,4.5-11.5,9.7  c-1.7,5.2-0.3,10.8,3.6,14.6l55,53.7c0.8,0.8,1.2,2,1,3.1l-13,75.8c-0.7,4.1,0.4,8.3,3.1,11.5c2.7,3.2,6.7,5.1,10.9,5.1  c2.3,0,4.5-0.6,6.6-1.7l68-35.8c1-0.5,2.3-0.5,3.3,0l68,35.8c2.1,1.1,4.3,1.7,6.6,1.7c4.2,0,8.2-1.9,10.9-5.1  c2.7-3.2,3.8-7.4,3.1-11.5l-13-75.8c-0.2-1.2,0.2-2.3,1-3.1L389.4,238.4z M322.8,297l13,75.8c0.2,1.4-0.3,2.3-0.8,2.9  c-1.1,1.3-2.9,1.7-4.4,0.9l-68-35.8c-2-1.1-4.3-1.6-6.6-1.6c-2.3,0-4.6,0.6-6.6,1.6l-68,35.8c-1.5,0.8-3.3,0.4-4.4-0.9  c-0.5-0.6-1-1.5-0.8-2.9l13-75.8c0.8-4.6-0.7-9.3-4.1-12.6l-55-53.7c-1.4-1.4-1.1-3-0.9-3.6c0.2-0.6,0.9-2.1,2.9-2.4l76.1-11.1  c4.6-0.7,8.6-3.6,10.7-7.8l34-68.9c0.9-1.8,2.5-2,3.2-2c0.7,0,2.3,0.2,3.2,2l34,68.9c2.1,4.2,6.1,7.1,10.7,7.8l76.1,11.1  c2,0.3,2.7,1.8,2.9,2.4c0.2,0.6,0.5,2.2-0.9,3.6l-55,53.7C323.5,287.7,322,292.4,322.8,297z" fill="#FFFFFF"/></svg>