<?xml version="1.0" encoding="iso-8859-1"?>
<!-- Generator: Adobe Illustrator 19.0.0, SVG Export Plug-In . SVG Version: 6.00 Build 0)  -->
<svg version="1.1" id="Layer_1" xmlns="http://www.w3.org/2000/svg" xmlns:xlink="http://www.w3.org/1999/xlink" x="0px" y="0px"
	 viewBox="0 0 512 512" style="enable-background:new 0 0 512 512;" xml:space="preserve">
<circle style="fill:#5ED1B3;" cx="256" cy="256" r="256"/>
<path style="fill:#4BC2A2;" d="M272.913,511.419l-129.476-120.26l227.066,3.435l14.665-238.864l125.585,125.572
	C498.583,405.268,398.004,503.265,272.913,511.419z"/>
<path style="fill:#68606E;" d="M153,106.027h180.414l51.753,49.703v224.78c0,7.734-6.597,14.084-14.665,14.084H153
	c-8.068,0-14.677-6.338-14.677-14.084V120.112C138.322,112.365,144.932,106.027,153,106.027z"/>
<path style="fill:#58515E;" d="M385.168,373.011v7.499c0,7.734-6.597,14.084-14.665,14.084H153c-8.068,0-14.677-6.338-14.677-14.084
	v-7.499c0,7.746,6.61,14.084,14.677,14.084h217.503C378.57,387.095,385.168,380.757,385.168,373.011z"/>
<path style="fill:#817C85;" d="M171.531,106.027h135.221v66.814c0,6.313-5.152,11.465-11.465,11.465H182.997
	c-6.313,0-11.465-5.152-11.465-11.465V106.027z"/>
<path style="fill:#F8F8F8;" d="M354.442,394.594H169.061V241.088c0-8.068,6.61-14.677,14.677-14.677h156.026
	c8.068,0,14.677,6.61,14.677,14.677V394.594z"/>
<polygon style="fill:#E6E6E6;" points="256.988,118.394 282.501,118.394 282.501,172.779 256.988,172.779 "/>
<g>
	<polygon style="fill:#B3B3BD;" points="184.146,259.978 339.357,259.978 339.357,271.468 184.146,271.468 	"/>
	<polygon style="fill:#B3B3BD;" points="184.146,298.673 339.357,298.673 339.357,310.163 184.146,310.163 	"/>
	<polygon style="fill:#B3B3BD;" points="184.146,337.367 339.357,337.367 339.357,348.857 184.146,348.857 	"/>
</g>
<polygon style="fill:#D9D9DD;" points="354.442,394.594 169.061,394.594 169.061,387.095 354.442,387.095 "/>
<g>
</g>
<g>
</g>
<g>
</g>
<g>
</g>
<g>
</g>
<g>
</g>
<g>
</g>
<g>
</g>
<g>
</g>
<g>
</g>
<g>
</g>
<g>
</g>
<g>
</g>
<g>
</g>
<g>
</g>
</svg>
